<?xml version="1.0" encoding="UTF-8"?>
<svg version="1.1" xmlns="http://www.w3.org/2000/svg" width="144" height="144">
<path d="M0 0 C9.9 0 19.8 0 30 0 C30 0.66 30 1.32 30 2 C31.7325 2.1546875 31.7325 2.1546875 33.5 2.3125 C42.91158561 3.51784342 53.59120439 7.95032483 60 15 C61.26276319 15.90717355 62.5347344 16.80158252 63.8125 17.6875 C69.91337205 22.18047867 74.41753753 27.86688763 77 35 C77.66 35 78.32 35 79 35 C79.50615298 36.26839526 80.00469099 37.53983102 80.5 38.8125 C80.91765625 39.87404297 80.91765625 39.87404297 81.34375 40.95703125 C82 43 82 43 82 46 C82.66 46 83.32 46 84 46 C85.84609192 51.50887793 86.30726576 56.36281861 86.30078125 62.15234375 C86.30506638 63.01130753 86.3093515 63.8702713 86.31376648 64.75526428 C86.3194821 66.56298953 86.32003058 68.37073776 86.31567383 70.1784668 C86.3125132 72.9260219 86.33600966 75.67249948 86.36132812 78.41992188 C86.36360153 80.18489449 86.36430442 81.94986997 86.36328125 83.71484375 C86.372491 84.52654526 86.38170074 85.33824677 86.39118958 86.17454529 C86.33668386 92.97930022 84.83019376 98.25470937 81 104 C78.03 103.01 75.06 102.02 72 101 C72 100.34 72 99.68 72 99 C62.64336785 98.43860207 54.86073702 98.12513339 47 104 C46.34 104.99 45.68 105.98 45 107 C44.34 107 43.68 107 43 107 C39.82088358 118.92168658 40.78956191 129.15195465 44 141 C37.64340277 143.50404903 32.09535212 144.45736926 25.28515625 144.43359375 C24.38937363 144.4388356 23.493591 144.44407745 22.57066345 144.44947815 C20.6891279 144.45585908 18.80755225 144.45461275 16.92602539 144.44604492 C14.07299697 144.43753132 11.22197223 144.46635693 8.36914062 144.49804688 C-9.15680703 144.56729665 -9.15680703 144.56729665 -17 140 C-18.11890625 139.4121875 -19.2378125 138.824375 -20.390625 138.21875 C-23.26709582 136.48972382 -26.13986384 134.75593265 -29 133 C-30.6396875 132.0409375 -30.6396875 132.0409375 -32.3125 131.0625 C-36.11261581 128.14613205 -38.96332396 124.68373148 -42 121 C-42.97839844 119.90365234 -42.97839844 119.90365234 -43.9765625 118.78515625 C-54.86998153 106.1462666 -58.18708061 93.41362397 -58.18530273 77.01806641 C-58.18747969 74.77096338 -58.2056337 72.52435948 -58.22460938 70.27734375 C-58.29615165 52.14792562 -58.29615165 52.14792562 -53 44 C-52.35825221 42.56989825 -51.7350353 41.13141419 -51.125 39.6875 C-49.18690669 35.2447938 -47.04497697 30.80104268 -44 27 C-43.34 27 -42.68 27 -42 27 C-41.73703125 26.41734375 -41.4740625 25.8346875 -41.203125 25.234375 C-34.87210649 13.4767692 -19.41660912 6.71043345 -7.3125 2.8125 C-4 2 -4 2 0 2 C0 1.34 0 0.68 0 0 Z " fill="#D3C0A7" transform="translate(58,0)"/>
<path d="M0 0 C0.66 0 1.32 0 2 0 C1.67 0.99 1.34 1.98 1 3 C0.34 3 -0.32 3 -1 3 C-1 4.32 -1 5.64 -1 7 C-2.32 7 -3.64 7 -5 7 C-5.185625 8.60875 -5.185625 8.60875 -5.375 10.25 C-6 14 -6 14 -6.96875 15.78125 C-8.40578688 18.87305662 -8.68788152 21.87794316 -9.125 25.25 C-9.29257812 26.51328125 -9.46015625 27.7765625 -9.6328125 29.078125 C-9.75398438 30.04234375 -9.87515625 31.0065625 -10 32 C-9.34 32 -8.68 32 -8 32 C-7.91868537 33.43655854 -7.86066441 34.8744483 -7.8125 36.3125 C-7.76029297 37.51326172 -7.76029297 37.51326172 -7.70703125 38.73828125 C-8.0666595 41.51461134 -8.94310068 42.19496591 -11 44 C-11.71447643 46.10332891 -11.71447643 46.10332891 -12 48 C-11.34 48 -10.68 48 -10 48 C-10 48.66 -10 49.32 -10 50 C-10.78375 50.721875 -11.5675 51.44375 -12.375 52.1875 C-15.39213557 55.42014525 -16.20167586 57.68904966 -17 62 C-16.67 62.99 -16.34 63.98 -16 65 C-16.165 65.804375 -16.33 66.60875 -16.5 67.4375 C-17.17776185 69.89687829 -17.17776185 69.89687829 -16.484375 71.86328125 C-15.01055629 78.36472345 -18.57678822 86.05211653 -21 92 C-18.03 91.01 -18.03 91.01 -15 90 C-14.1875 92.125 -14.1875 92.125 -14 95 C-15.60118397 97.05279996 -17.26776336 99.05651499 -19 101 C-19 101.99 -19 102.98 -19 104 C-18.34 104 -17.68 104 -17 104 C-17.309375 105.051875 -17.61875 106.10375 -17.9375 107.1875 C-19.20641816 111.54864679 -19.20641816 111.54864679 -20 116 C-19.34 116.66 -18.68 117.32 -18 118 C-18.33 118.99 -18.66 119.98 -19 121 C-29.80737111 110.51049274 -40.48584488 97.22565815 -41.14526367 81.54589844 C-41.16550475 78.03657407 -41.18568328 74.52744886 -41.18530273 71.01806641 C-41.18747969 68.77096338 -41.2056337 66.52435948 -41.22460938 64.27734375 C-41.29615165 46.14792562 -41.29615165 46.14792562 -36 38 C-35.35825221 36.56989825 -34.7350353 35.13141419 -34.125 33.6875 C-32.18690669 29.2447938 -30.04497697 24.80104268 -27 21 C-26.34 21 -25.68 21 -25 21 C-24.73703125 20.41734375 -24.4740625 19.8346875 -24.203125 19.234375 C-19.81244792 11.08026043 -11.73140322 6.79599777 -3.87890625 2.56640625 C-1.17921216 1.27360215 -1.17921216 1.27360215 0 0 Z " fill="#867769" transform="translate(41,6)"/>
<path d="M0 0 C2.75065232 0.16857483 2.75065232 0.16857483 5 0 C4.49040111 6.49738583 4.49040111 6.49738583 1.9609375 9.08984375 C-0.96019493 13.42499049 -0.34670241 17.28190679 -0.125 22.375 C0.09261586 31.49219763 -0.43259208 40.01539389 -2 49 C-5.08325358 49.0582253 -8.16636505 49.09367134 -11.25 49.125 C-12.55904297 49.15013672 -12.55904297 49.15013672 -13.89453125 49.17578125 C-14.73886719 49.18222656 -15.58320312 49.18867188 -16.453125 49.1953125 C-17.22817383 49.20578613 -18.00322266 49.21625977 -18.80175781 49.22705078 C-21.25883539 48.97326556 -22.87311542 48.22444152 -25 47 C-24.34 47 -23.68 47 -23 47 C-22.96261719 45.90042969 -22.92523438 44.80085938 -22.88671875 43.66796875 C-22.56296889 35.92692535 -21.98130671 28.94872318 -19.6328125 21.515625 C-18.58751253 17.36023498 -18.7509651 13.25204041 -19 9 C-19.66 8.67 -20.32 8.34 -21 8 C-21 5.69 -21 3.38 -21 1 C-13.25444198 -2.26128759 -8.07539654 -2.80883358 0 0 Z " fill="#41383D" transform="translate(72,95)"/>
<path d="M0 0 C2.51683647 2.38866424 2.9773511 3.74995616 3.29296875 7.234375 C3.25816406 8.39453125 3.22335938 9.5546875 3.1875 10.75 C3.16042969 11.92046875 3.13335938 13.0909375 3.10546875 14.296875 C3.07066406 15.18890625 3.03585938 16.0809375 3 17 C1.35 17.33 -0.3 17.66 -2 18 C-1.90912109 18.7748877 -1.81824219 19.54977539 -1.72460938 20.34814453 C-1.30818593 23.93952979 -0.90405318 27.53220279 -0.5 31.125 C-0.35691406 32.34316406 -0.21382812 33.56132813 -0.06640625 34.81640625 C0.87318033 43.27268543 1.17657817 51.49645315 1 60 C1.66 60 2.32 60 3 60 C3 61.32 3 62.64 3 64 C-4.40729264 60.74840473 -7.52992447 53.29253332 -10.8125 46.3125 C-11.11454346 45.67094971 -11.41658691 45.02939941 -11.7277832 44.3684082 C-14.51968421 38.22367266 -15.12445208 33.23747182 -15.09765625 26.51171875 C-15.0962413 25.80852005 -15.09482635 25.10532135 -15.09336853 24.3808136 C-15.08780109 22.14966456 -15.07525475 19.91861836 -15.0625 17.6875 C-15.05748079 16.16862125 -15.05291862 14.64974091 -15.04882812 13.13085938 C-15.03784236 9.42053988 -15.02060034 5.71027999 -15 2 C-5.02072539 -0.59067358 -5.02072539 -0.59067358 0 0 Z " fill="#463723" transform="translate(15,57)"/>
<path d="M0 0 C1.4540625 0.0309375 1.4540625 0.0309375 2.9375 0.0625 C2.9375 1.7125 2.9375 3.3625 2.9375 5.0625 C4.54625 4.93875 4.54625 4.93875 6.1875 4.8125 C9.9375 5.0625 9.9375 5.0625 12.375 6.6875 C14.38564771 9.74368452 14.47270313 11.46899325 13.9375 15.0625 C13.44765625 15.51109375 12.9578125 15.9596875 12.453125 16.421875 C10.39873204 18.64570243 10.44366888 20.26749926 10.25 23.25 C10.18425781 24.15105469 10.11851563 25.05210938 10.05078125 25.98046875 C10.01339844 26.66753906 9.97601563 27.35460937 9.9375 28.0625 C10.5975 28.0625 11.2575 28.0625 11.9375 28.0625 C10.0625 32.8125 10.0625 32.8125 8.9375 35.0625 C9.453125 34.4025 9.96875 33.7425 10.5 33.0625 C13.75840087 30.38894031 15.80074978 31.0625 19.9375 31.0625 C23.15579104 29.13956482 23.15579104 29.13956482 25.9375 27.0625 C26.9275 27.0625 27.9175 27.0625 28.9375 27.0625 C27.97575645 30.52477679 27.07569448 31.95001612 24.25 34.25 C20.74999938 36.16509468 17.79441343 37.13684078 13.9375 38.0625 C13.9375 38.7225 13.9375 39.3825 13.9375 40.0625 C1.60069356 41.71335656 1.60069356 41.71335656 -4.0625 39.0625 C-5.4375 36.625 -5.4375 36.625 -6.0625 34.0625 C-6.5575 32.5775 -6.5575 32.5775 -7.0625 31.0625 C-7.7225 31.0625 -8.3825 31.0625 -9.0625 31.0625 C-9.0625 29.4125 -9.0625 27.7625 -9.0625 26.0625 C-7.7425 26.0625 -6.4225 26.0625 -5.0625 26.0625 C-3.64193557 21.80080671 -3.67788152 17.56162317 -3.44140625 13.09375 C-3.0625 10.0625 -3.0625 10.0625 -1.0625 7.0625 C-2.3825 6.7325 -3.7025 6.4025 -5.0625 6.0625 C-3.98897059 0.08140756 -3.98897059 0.08140756 0 0 Z " fill="#160F0A" transform="translate(57.0625,25.9375)"/>
<path d="M0 0 C0.66 0.33 1.32 0.66 2 1 C1.34 2.65 0.68 4.3 0 6 C1.65 6 3.3 6 5 6 C4.6803125 6.5259375 4.360625 7.051875 4.03125 7.59375 C2.73151014 10.62647633 2.6509116 13.21012715 2.5 16.5 C2.31477391 20.53792882 2.12021173 23.51190973 0 27 C-0.99 27 -1.98 27 -3 27 C-3.33 28.32 -3.66 29.64 -4 31 C-3.34 31 -2.68 31 -2 31 C0.74375671 33.95481492 1 34.77471908 1 39 C7.02031344 39.60965199 12.94670256 40.13451772 19 40 C19 39.34 19 38.68 19 38 C20.0725 37.54625 21.145 37.0925 22.25 36.625 C24.88062317 35.49911463 27.46000396 34.32079794 30 33 C28.375 35.4375 28.375 35.4375 26 38 C24.00448218 38.35919321 22.00451121 38.69496569 20 39 C18.75825204 40.9001177 18.75825204 40.9001177 18 43 C17.01 43.66 16.02 44.32 15 45 C14.690625 45.66 14.38125 46.32 14.0625 47 C12.66620752 49.62831525 11.83964663 50.09837734 9 51 C5.546875 50.3203125 5.546875 50.3203125 1.75 49.125 C1.1003125 48.92519531 0.450625 48.72539063 -0.21875 48.51953125 C-1.81659163 48.02608016 -3.40889803 47.51476828 -5 47 C-5 45.02 -5 43.04 -5 41 C-5.66 41 -6.32 41 -7 41 C-7.2165625 39.4221875 -7.2165625 39.4221875 -7.4375 37.8125 C-7.87526966 34.84539451 -8.37804866 31.93205634 -9 29 C-9.99 28.67 -10.98 28.34 -12 28 C-12 27.34 -12 26.68 -12 26 C-12.66 25.67 -13.32 25.34 -14 25 C-13.34 25 -12.68 25 -12 25 C-12 22.36 -12 19.72 -12 17 C-11.236875 16.71125 -10.47375 16.4225 -9.6875 16.125 C-6.84970692 15.03730987 -6.84970692 15.03730987 -4 13 C-3.64159778 10.67038557 -3.31151288 8.33634657 -3 6 C-1.4375 2.5625 -1.4375 2.5625 0 0 Z " fill="#99866F" transform="translate(52,26)"/>
<path d="M0 0 C0.66 0 1.32 0 2 0 C1.67 0.99 1.34 1.98 1 3 C0.34 3 -0.32 3 -1 3 C-1 4.32 -1 5.64 -1 7 C-2.32 7 -3.64 7 -5 7 C-5.12375 8.0725 -5.2475 9.145 -5.375 10.25 C-6 14 -6 14 -6.96875 15.78125 C-8.40578688 18.87305662 -8.68788152 21.87794316 -9.125 25.25 C-9.37636719 27.14492188 -9.37636719 27.14492188 -9.6328125 29.078125 C-9.75398438 30.04234375 -9.87515625 31.0065625 -10 32 C-9.34 32 -8.68 32 -8 32 C-7.91868537 33.43655854 -7.86066441 34.8744483 -7.8125 36.3125 C-7.77769531 37.11300781 -7.74289063 37.91351563 -7.70703125 38.73828125 C-8.0666595 41.51461134 -8.94310068 42.19496591 -11 44 C-11.71447643 46.10332891 -11.71447643 46.10332891 -12 48 C-11.34 48 -10.68 48 -10 48 C-10 48.66 -10 49.32 -10 50 C-10.78375 50.7425 -11.5675 51.485 -12.375 52.25 C-15.14152723 55.14826662 -16.02011258 57.169531 -17 61 C-17.33 61 -17.66 61 -18 61 C-18.28888803 56.07468965 -18.57353842 51.149158 -18.85449219 46.22338867 C-18.9503711 44.55242523 -19.04734957 42.88152446 -19.14550781 41.21069336 C-20.04962521 25.79918195 -20.04962521 25.79918195 -20.234375 18.53515625 C-20.25725586 17.72054932 -20.28013672 16.90594238 -20.30371094 16.06665039 C-19.92837336 13.51260487 -19.08860515 12.52183507 -17.25 10.75 C-15.3515625 9.41015625 -15.3515625 9.41015625 -13 8 C-11.97648437 7.37996094 -10.95296875 6.75992187 -9.8984375 6.12109375 C-7.77086569 4.86435384 -5.63067423 3.62865438 -3.4765625 2.41796875 C-1.13177237 1.21920514 -1.13177237 1.21920514 0 0 Z " fill="#9B8B7C" transform="translate(41,6)"/>
<path d="M0 0 C3 0 3 0 4.6875 1.625 C5.450625 2.40875 6.21375 3.1925 7 4 C8.26280085 4.90712113 9.53456499 5.8018269 10.8125 6.6875 C16.91337205 11.18047867 21.41753753 16.86688763 24 24 C23.01 23.67 22.02 23.34 21 23 C20.896875 23.5775 20.79375 24.155 20.6875 24.75 C19.90207202 27.32049158 18.69495803 28.93657284 17 31 C13.125 29.125 13.125 29.125 12 28 C11.01 34.93 10.02 41.86 9 49 C8.34 49 7.68 49 7 49 C7 41.41 7 33.82 7 26 C6.34 26 5.68 26 5 26 C4.67 26.99 4.34 27.98 4 29 C3.34 26.69 2.68 24.38 2 22 C1.34 22 0.68 22 0 22 C-2.06459496 14.855846 -1.07406039 7.24990761 0 0 Z " fill="#9F8D76" transform="translate(111,11)"/>
<path d="M0 0 C1.32 0 2.64 0 4 0 C3.67201637 3.06118051 3.13130744 3.89353451 0.6875 5.875 C-0.199375 6.57625 -1.08625 7.2775 -2 8 C-3.051875 9.5778125 -3.051875 9.5778125 -4.125 11.1875 C-6 14 -6 14 -9 15 C-9.185625 16.2065625 -9.185625 16.2065625 -9.375 17.4375 C-9.69531095 19.2632724 -10.02430027 21.09182219 -10.49853516 22.88378906 C-12.20219803 29.40603231 -12.16445266 35.60694287 -12 42.3125 C-11.94892503 44.43338806 -11.90687872 46.55451782 -11.875 48.67578125 C-11.85179687 49.60302002 -11.82859375 50.53025879 -11.8046875 51.4855957 C-12.01077947 54.13877216 -12.6498895 55.73132269 -14 58 C-14.66 58 -15.32 58 -16 58 C-16.06699572 54.18124401 -16.1159405 50.69300801 -15.484375 46.91796875 C-14.74321496 40.92294034 -15.06783256 34.94578828 -15.30273438 28.91796875 C-15.43633843 21.66376331 -15.43633843 21.66376331 -13.06640625 18.05859375 C-12.38449219 17.37925781 -11.70257813 16.69992188 -11 16 C-10.13872542 14.05054994 -10.13872542 14.05054994 -9.75 12.1875 C-9.5025 11.135625 -9.255 10.08375 -9 9 C-9.70125 9.20625 -10.4025 9.4125 -11.125 9.625 C-14.63785954 10.08319907 -16.66731042 9.13311446 -20 8 C-25.17273437 7.62380114 -29.14428512 8.41446045 -34 10 C-34.33 12.31 -34.66 14.62 -35 17 C-34.01 17.33 -33.02 17.66 -32 18 C-31.69027957 23.28818959 -31.8212983 27.97197986 -33.375 33.0625 C-35.64861297 40.54063936 -36.22795565 48.25230789 -37 56 C-38.65 55.67 -40.3 55.34 -42 55 C-41.855625 54.030625 -41.71125 53.06125 -41.5625 52.0625 C-41.26049303 50.0022333 -40.99632677 47.9576406 -40.81640625 45.8828125 C-40.45033367 41.68418414 -39.74875176 37.95128473 -38.4375 33.9375 C-36.97478537 29.37269975 -36.84342109 25.77565666 -37 21 C-36.75751351 18.64249248 -36.38989247 16.33935484 -36 14 C-36.66 14 -37.32 14 -38 14 C-38 13.34 -38 12.68 -38 12 C-38.66 12 -39.32 12 -40 12 C-42.625 9.6875 -42.625 9.6875 -45 7 C-45 6.01 -45 5.02 -45 4 C-44.34 4 -43.68 4 -43 4 C-42.67 3.01 -42.34 2.02 -42 1 C-40.68 1 -39.36 1 -38 1 C-38 2.65 -38 4.3 -38 6 C-36.75605469 5.98839844 -35.51210938 5.97679688 -34.23046875 5.96484375 C-25.43355571 5.90828901 -16.74583651 5.89940035 -8 7 C-8 6.34 -8 5.68 -8 5 C-7.05125 4.54625 -6.1025 4.0925 -5.125 3.625 C-1.99686321 2.19761746 -1.99686321 2.19761746 0 0 Z " fill="#A09485" transform="translate(86,86)"/>
<path d="M0 0 C1.09471933 3.284158 1 3.58508064 1 7 C-0.48551921 9.18052998 -2.24174197 11.02195971 -4 13 C-3.38125 12.34 -2.7625 11.68 -2.125 11 C0 9 0 9 2 9 C2.0276619 10.49988961 2.0466861 11.99993869 2.0625 13.5 C2.07410156 14.3353125 2.08570312 15.170625 2.09765625 16.03125 C1.97572095 19.73808324 1.49865131 23.32490057 1 27 C-2.08325358 27.0582253 -5.16636505 27.09367134 -8.25 27.125 C-9.55904297 27.15013672 -9.55904297 27.15013672 -10.89453125 27.17578125 C-11.73886719 27.18222656 -12.58320312 27.18867188 -13.453125 27.1953125 C-14.22817383 27.20578613 -15.00322266 27.21625977 -15.80175781 27.22705078 C-18.25883539 26.97326556 -19.87311542 26.22444152 -22 25 C-21.34 25 -20.68 25 -20 25 C-20.020625 23.948125 -20.04125 22.89625 -20.0625 21.8125 C-20.01103198 18.67295096 -19.73482813 16.03116604 -19 13 C-17.35 13 -15.7 13 -14 13 C-14 12.34 -14 11.68 -14 11 C-12.33333333 10 -10.66666667 9 -9 8 C-7.31288577 6.3540349 -5.6454378 4.68762851 -4 3 C-2.68824014 1.97186389 -1.3630107 0.95915568 0 0 Z " fill="#272224" transform="translate(69,117)"/>
<path d="M0 0 C0.99 0 1.98 0 3 0 C3 0.66 3 1.32 3 2 C3.66 2 4.32 2 5 2 C5 1.34 5 0.68 5 0 C6.65 0 8.3 0 10 0 C8.68 0.33 7.36 0.66 6 1 C6.09087891 1.7748877 6.18175781 2.54977539 6.27539062 3.34814453 C6.69181407 6.93952979 7.09594682 10.53220279 7.5 14.125 C7.64308594 15.34316406 7.78617188 16.56132813 7.93359375 17.81640625 C8.87318033 26.27268543 9.17657817 34.49645315 9 43 C9.66 43 10.32 43 11 43 C11 44.32 11 45.64 11 47 C3.6035793 43.75317721 0.44411065 36.26952505 -2.875 29.3125 C-3.18542236 28.67094971 -3.49584473 28.02939941 -3.81567383 27.3684082 C-5.45791106 23.79483687 -6.50003184 20.94310825 -6 17 C-4.75 15.1875 -4.75 15.1875 -3 14 C-1.68 14 -0.36 14 1 14 C0.67 9.38 0.34 4.76 0 0 Z " fill="#553E24" transform="translate(7,74)"/>
<path d="M0 0 C0 0.99 0 1.98 0 3 C-0.99 3 -1.98 3 -3 3 C-2.87625 4.6396875 -2.87625 4.6396875 -2.75 6.3125 C-3 10 -3 10 -4.8125 11.625 C-5.534375 12.07875 -6.25625 12.5325 -7 13 C-7.45375 13.78375 -7.9075 14.5675 -8.375 15.375 C-10.50381378 18.81385303 -12.72859963 20.6146039 -16 23 C-16.99 23 -17.98 23 -19 23 C-19.02715383 24.74991334 -19.04646551 26.49994945 -19.0625 28.25 C-19.07410156 29.22453125 -19.08570313 30.1990625 -19.09765625 31.203125 C-19.10699029 33.89559897 -19.10699029 33.89559897 -18.46875 36.01171875 C-17.847997 38.64474606 -18.1419587 40.88073639 -18.4375 43.5625 C-18.74297988 46.4123566 -19 49.13169534 -19 52 C-21.375 53.75 -21.375 53.75 -24 55 C-24.66 54.67 -25.32 54.34 -26 54 C-24.515 53.505 -24.515 53.505 -23 53 C-23 52.34 -23 51.68 -23 51 C-23.66 51 -24.32 51 -25 51 C-24.25 46.25 -24.25 46.25 -22 44 C-21.95833998 41.6670386 -21.95833998 39.3329614 -22 37 C-21.67 36.34 -21.34 35.68 -21 35 C-21.66 35 -22.32 35 -23 35 C-22.41891046 20.55291171 -22.41891046 20.55291171 -19 14 C-18.62691369 12.67723944 -18.26953585 11.34767923 -18 10 C-16.68 10 -15.36 10 -14 10 C-14 8.68 -14 7.36 -14 6 C-13.34 5.67 -12.68 5.34 -12 5 C-11.67 4.01 -11.34 3.02 -11 2 C-7.12137916 0.60955102 -4.13537997 0 0 0 Z " fill="#C0AE99" transform="translate(54,3)"/>
<path d="M0 0 C2 1 2 1 2.6149292 2.81256104 C2.98589258 4.91986117 3.13959326 6.86152509 3.16113281 8.99902344 C3.17074036 9.77372986 3.1803479 10.54843628 3.19024658 11.34661865 C3.19449646 12.17582825 3.19874634 13.00503784 3.203125 13.859375 C3.20882507 14.72258362 3.21452515 15.58579224 3.22039795 16.47515869 C3.22983294 18.30080953 3.23637596 20.12647729 3.24023438 21.95214844 C3.249917 24.72621911 3.28094483 27.49954128 3.3125 30.2734375 C3.31903308 32.05207896 3.32428235 33.83072569 3.328125 35.609375 C3.3404718 36.43048767 3.3528186 37.25160034 3.36553955 38.09759521 C3.33942998 44.9472401 1.85674151 50.21488774 -2 56 C-4.97 55.01 -7.94 54.02 -11 53 C-11 52.34 -11 51.68 -11 51 C-12.32 50.67 -13.64 50.34 -15 50 C-13.68 49.34 -12.36 48.68 -11 48 C-11 48.66 -11 49.32 -11 50 C-10.34 50 -9.68 50 -9 50 C-9 50.66 -9 51.32 -9 52 C-8.01 52 -7.02 52 -6 52 C-6.061875 50.0509375 -6.061875 50.0509375 -6.125 48.0625 C-6.22839034 44.80570433 -5.80291496 41.95263004 -5.05859375 38.80078125 C-3.9199742 33.93287984 -3.38847566 29.09749685 -2.9375 24.125 C-2.78306221 22.46064558 -2.62563771 20.79656488 -2.46484375 19.1328125 C-2.399021 18.40980957 -2.33319824 17.68680664 -2.26538086 16.94189453 C-2 15 -2 15 -1 12 C-0.77674186 9.94106379 -0.59294241 7.87766347 -0.4375 5.8125 C-0.35371094 4.72582031 -0.26992187 3.63914063 -0.18359375 2.51953125 C-0.12300781 1.68808594 -0.06242188 0.85664062 0 0 Z " fill="#AB9B82" transform="translate(141,48)"/>
<path d="M0 0 C0.33 0 0.66 0 1 0 C2.11165232 4.4378561 2.11527763 8.76956386 2.0625 13.3125 C2.05798828 14.05306641 2.05347656 14.79363281 2.04882812 15.55664062 C2.03712175 17.37112899 2.01918898 19.18557534 2 21 C5.63 21 9.26 21 13 21 C12.67 22.32 12.34 23.64 12 25 C12.515625 24.34 13.03125 23.68 13.5625 23 C16.82090087 20.32644031 18.86324978 21 23 21 C26.21829104 19.07706482 26.21829104 19.07706482 29 17 C29.99 17 30.98 17 32 17 C31.03825645 20.46227679 30.13819448 21.88751612 27.3125 24.1875 C23.81249938 26.10259468 20.85691343 27.07434078 17 28 C17 28.66 17 29.32 17 30 C4.66319356 31.65085656 4.66319356 31.65085656 -1 29 C-2.375 26.5625 -2.375 26.5625 -3 24 C-3.33 23.01 -3.66 22.02 -4 21 C-4.66 21 -5.32 21 -6 21 C-6 19.35 -6 17.7 -6 16 C-4.68 16 -3.36 16 -2 16 C-0.89485234 12.68455701 -0.67892369 9.79589889 -0.4375 6.3125 C-0.35371094 5.13300781 -0.26992188 3.95351563 -0.18359375 2.73828125 C-0.12300781 1.83464844 -0.06242187 0.93101563 0 0 Z " fill="#362316" transform="translate(54,36)"/>
<path d="M0 0 C0.33 0.99 0.66 1.98 1 3 C1.66 3 2.32 3 3 3 C3.94693195 6.7016431 4.30443767 8.39112465 2.5625 11.875 C2.046875 12.57625 1.53125 13.2775 1 14 C-0.051875 13.731875 -1.10375 13.46375 -2.1875 13.1875 C-6.1387882 12.55287377 -6.1387882 12.55287377 -8.8125 15.4375 C-9.534375 16.283125 -10.25625 17.12875 -11 18 C-11.66 18 -12.32 18 -13 18 C-13.22181406 15.56304285 -13.42791119 13.126474 -13.625 10.6875 C-13.68945312 9.99720703 -13.75390625 9.30691406 -13.8203125 8.59570312 C-14.11802847 4.7440028 -14.20763723 3.31145584 -12 0 C-7.72335094 -1.16635883 -4.30487872 -0.92247401 0 0 Z " fill="#302829" transform="translate(68,96)"/>
<path d="M0 0 C0.66 0.33 1.32 0.66 2 1 C1.814375 2.0725 1.62875 3.145 1.4375 4.25 C0.79828808 7.72430351 0.79828808 7.72430351 1.51953125 9.9375 C3.01865816 16.37277648 -0.60134642 24.11239576 -3 30 C-1.02 29.34 0.96 28.68 3 28 C3.8125 30.125 3.8125 30.125 4 33 C2.39881603 35.05279996 0.73223664 37.05651499 -1 39 C-1 39.99 -1 40.98 -1 42 C-0.34 42 0.32 42 1 42 C0.690625 43.051875 0.38125 44.10375 0.0625 45.1875 C-1.20641816 49.54864679 -1.20641816 49.54864679 -2 54 C-1.34 54.66 -0.68 55.32 0 56 C-0.33 56.99 -0.66 57.98 -1 59 C-3.5625 56.8125 -3.5625 56.8125 -6 54 C-5.8125 51.1875 -5.8125 51.1875 -5 49 C-5.66 49 -6.32 49 -7 49 C-6.67128906 48.23945312 -6.34257812 47.47890625 -6.00390625 46.6953125 C-4.64614782 41.69749352 -4.8258429 37.02476075 -4.9375 31.875 C-4.97201322 29.91413754 -5.00213463 27.95319165 -5.02734375 25.9921875 C-5.04531006 25.12964355 -5.06327637 24.26709961 -5.08178711 23.37841797 C-5.00336606 21.09788699 -4.64403114 19.18169099 -4 17 C-3.34 17 -2.68 17 -2 17 C-2.02320313 16.35933594 -2.04640625 15.71867187 -2.0703125 15.05859375 C-2.18440863 9.59012904 -1.79791904 5.16901723 0 0 Z " fill="#9B8C7C" transform="translate(23,68)"/>
<path d="M0 0 C0.66 0 1.32 0 2 0 C1.67 0.99 1.34 1.98 1 3 C0.34 3 -0.32 3 -1 3 C-1 4.32 -1 5.64 -1 7 C-2.32 7 -3.64 7 -5 7 C-5.1546875 8.5778125 -5.1546875 8.5778125 -5.3125 10.1875 C-5.97949332 13.88628113 -6.74990008 16.02986811 -9 19 C-9.66 19 -10.32 19 -11 19 C-11.33 21.64 -11.66 24.28 -12 27 C-12.66 27 -13.32 27 -14 27 C-13.89300781 27.61488281 -13.78601563 28.22976562 -13.67578125 28.86328125 C-13.55589844 29.67152344 -13.43601562 30.47976562 -13.3125 31.3125 C-13.18488281 32.11300781 -13.05726562 32.91351563 -12.92578125 33.73828125 C-13 36 -13 36 -14.50463867 37.64135742 C-14.99810791 38.08970947 -15.49157715 38.53806152 -16 39 C-16.05534912 38.35450195 -16.11069824 37.70900391 -16.16772461 37.04394531 C-16.42098611 34.11233145 -16.67919036 31.18117319 -16.9375 28.25 C-17.02451172 27.23421875 -17.11152344 26.2184375 -17.20117188 25.171875 C-17.28818359 24.1921875 -17.37519531 23.2125 -17.46484375 22.203125 C-17.543396 21.30239258 -17.62194824 20.40166016 -17.70288086 19.47363281 C-17.97139439 17.23815288 -18.39662418 15.16596449 -19 13 C-14.26984285 8.66402262 -9.08917177 5.60887948 -3.51171875 2.453125 C-1.13795844 1.22394473 -1.13795844 1.22394473 0 0 Z " fill="#8F8072" transform="translate(41,6)"/>
<path d="M0 0 C0.66 0 1.32 0 2 0 C2 1.32 2 2.64 2 4 C2.66 4 3.32 4 4 4 C3.67 9.28 3.34 14.56 3 20 C2.34 20 1.68 20 1 20 C1.01571045 20.76666992 1.0314209 21.53333984 1.04760742 22.32324219 C1.10998974 25.79875302 1.14900162 29.27414601 1.1875 32.75 C1.21263672 33.9565625 1.23777344 35.163125 1.26367188 36.40625 C1.27333984 37.56640625 1.28300781 38.7265625 1.29296875 39.921875 C1.3086792 40.99018555 1.32438965 42.05849609 1.34057617 43.15917969 C0.96029894 46.33115522 0.12893092 47.67217242 -2 50 C-2.08302368 48.9941687 -2.08302368 48.9941687 -2.16772461 47.96801758 C-2.42134011 44.91592263 -2.67937638 41.86421686 -2.9375 38.8125 C-3.02451172 37.75740234 -3.11152344 36.70230469 -3.20117188 35.61523438 C-3.28818359 34.59365234 -3.37519531 33.57207031 -3.46484375 32.51953125 C-3.543396 31.58214111 -3.62194824 30.64475098 -3.70288086 29.67895508 C-3.99180033 27.07393178 -4.48348981 24.56761059 -5 22 C-5.0659735 19.89676466 -5.08562245 17.79164276 -5.0625 15.6875 C-5.05347656 14.61886719 -5.04445313 13.55023438 -5.03515625 12.44921875 C-5.02355469 11.64097656 -5.01195312 10.83273438 -5 10 C-3.68 9.67 -2.36 9.34 -1 9 C-0.67 6.03 -0.34 3.06 0 0 Z " fill="#736757" transform="translate(18,65)"/>
<path d="M0 0 C0.66 0.33 1.32 0.66 2 1 C2.49327298 3.42069147 2.85031753 5.73961101 3.125 8.1875 C3.20991699 8.89841797 3.29483398 9.60933594 3.38232422 10.34179688 C4.14289292 17.2404764 4.19513703 24.06179444 4 31 C4.66 31 5.32 31 6 31 C6 32.32 6 33.64 6 35 C-0.86893779 32.0540547 -4.46579212 24.96088307 -7.25390625 18.3203125 C-8.46347008 14.5586323 -8.75009266 10.93604059 -9 7 C-7.33388095 6.957279 -5.66617115 6.95936168 -4 7 C-2.30802581 8.69197419 -2.67342066 10.93359541 -2.5 13.25 C-2.22292944 16.91128954 -1.78577537 20.41162583 -1 24 C-0.34 24 0.32 24 1 24 C0.67 16.08 0.34 8.16 0 0 Z " fill="#4B3922" transform="translate(12,86)"/>
<path d="M0 0 C-0.75 4.75 -0.75 4.75 -3 7 C-3 7.99 -3 8.98 -3 10 C0.465 9.505 0.465 9.505 4 9 C4 10.98 4 12.96 4 15 C2.33388095 15.042721 0.66617115 15.04063832 -1 15 C-1.33 14.67 -1.66 14.34 -2 14 C-3.85772162 14.08984301 -5.71247985 14.24611861 -7.5625 14.4375 C-10.2540625 14.7159375 -10.2540625 14.7159375 -13 15 C-13 10.38 -13 5.76 -13 1 C-8.41510669 0.23585111 -4.58535136 -0.09170703 0 0 Z " fill="#201312" transform="translate(13,58)"/>
<path d="M0 0 C0.33 0 0.66 0 1 0 C1.1820896 9.36749815 0.61326035 18.6587308 0 28 C0.66 28 1.32 28 2 28 C2 24.7 2 21.4 2 18 C2.33 18 2.66 18 3 18 C3.02687279 19.81242052 3.04633715 21.62495233 3.0625 23.4375 C3.07410156 24.44683594 3.08570312 25.45617187 3.09765625 26.49609375 C3 29 3 29 2 30 C1.76636119 31.84891946 1.58696365 33.70488031 1.4375 35.5625 C1.35371094 36.57441406 1.26992187 37.58632812 1.18359375 38.62890625 C1.09271484 39.80259766 1.09271484 39.80259766 1 41 C0.34 41 -0.32 41 -1 41 C-1 43.64 -1 46.28 -1 49 C-1.33 49 -1.66 49 -2 49 C-2.33 42.07 -2.66 35.14 -3 28 C-3.66 27.67 -4.32 27.34 -5 27 C-5.07471185 23.33911931 -4.99851558 19.99139034 -4.375 16.375 C-3.96507187 12.68564684 -4.58421039 11.33126967 -6 8 C-6.07646165 5.6679198 -6.09143299 3.33154122 -6 1 C-5.38125 1.66 -4.7625 2.32 -4.125 3 C-2.24362573 5.2284549 -2.24362573 5.2284549 0 5 C0 3.35 0 1.7 0 0 Z " fill="#B7A68C" transform="translate(118,32)"/>
<path d="M0 0 C6.93 0 13.86 0 21 0 C21 0.66 21 1.32 21 2 C23.475 2.495 23.475 2.495 26 3 C25.67 3.66 25.34 4.32 25 5 C22.66410673 5.77863109 20.38668236 6.40935639 18 7 C16.96617188 7.26167969 15.93234375 7.52335938 14.8671875 7.79296875 C11.91337649 8.53665876 8.95759529 9.27152825 6 10 C5.67 9.01 5.34 8.02 5 7 C2.49552484 5.78130071 2.49552484 5.78130071 0 5 C0 3.35 0 1.7 0 0 Z " fill="#928276" transform="translate(67,0)"/>
<path d="M0 0 C1.32 0 2.64 0 4 0 C3.67201637 3.06118051 3.13130744 3.89353451 0.6875 5.875 C-0.199375 6.57625 -1.08625 7.2775 -2 8 C-2.70125 9.051875 -3.4025 10.10375 -4.125 11.1875 C-6 14 -6 14 -9 15 C-9.185625 16.2065625 -9.185625 16.2065625 -9.375 17.4375 C-9.69531095 19.2632724 -10.02430027 21.09182219 -10.49853516 22.88378906 C-12.20219803 29.40603231 -12.16445266 35.60694287 -12 42.3125 C-11.94892503 44.43338806 -11.90687872 46.55451782 -11.875 48.67578125 C-11.85179688 49.60302002 -11.82859375 50.53025879 -11.8046875 51.4855957 C-12.01077947 54.13877216 -12.6498895 55.73132269 -14 58 C-14.66 58 -15.32 58 -16 58 C-16.06706701 54.1771807 -16.11581817 50.6888133 -15.48046875 46.91015625 C-15.08902727 43.72452278 -14.98529792 40.93592747 -15.078125 37.75 C-15.10390625 36.8115625 -15.1296875 35.873125 -15.15625 34.90625 C-15.21876827 32.96818364 -15.29690846 31.03055845 -15.390625 29.09375 C-15.5382149 22.37840947 -14.61600242 18.97533195 -10 14 C-9.34 14 -8.68 14 -8 14 C-8 12.35 -8 10.7 -8 9 C-7.34 9 -6.68 9 -6 9 C-6 8.01 -6 7.02 -6 6 C-6.66 5.67 -7.32 5.34 -8 5 C-7.05125 4.54625 -6.1025 4.0925 -5.125 3.625 C-1.99686321 2.19761746 -1.99686321 2.19761746 0 0 Z " fill="#B2A594" transform="translate(86,86)"/>
<path d="M0 0 C2.75065232 0.16857483 2.75065232 0.16857483 5 0 C4.50769231 6.52307692 4.50769231 6.52307692 1.9375 8.9375 C0.9784375 9.4634375 0.9784375 9.4634375 0 10 C-0.33 8.02 -0.66 6.04 -1 4 C-1.66 4 -2.32 4 -3 4 C-3.33 3.34 -3.66 2.68 -4 2 C-8.03039882 1.06269795 -11.87419289 0.9017665 -16 1 C-17.0712828 7.02596573 -17.09945415 12.88909517 -17 19 C-16.13375 17.9790625 -16.13375 17.9790625 -15.25 16.9375 C-14.5075 16.298125 -13.765 15.65875 -13 15 C-10.75 15.25 -10.75 15.25 -9 16 C-9 17.66666667 -9 19.33333333 -9 21 C-9.99 21.33 -10.98 21.66 -12 22 C-12 21.34 -12 20.68 -12 20 C-13.98491642 20.26676204 -13.98491642 20.26676204 -16 21 C-16.33 21.99 -16.66 22.98 -17 24 C-17.99 24.33 -18.98 24.66 -20 25 C-19.835 24.21625 -19.67 23.4325 -19.5 22.625 C-18.87039153 18.06033858 -18.91819473 13.59927399 -19 9 C-19.66 8.67 -20.32 8.34 -21 8 C-21 5.69 -21 3.38 -21 1 C-13.25444198 -2.26128759 -8.07539654 -2.80883358 0 0 Z " fill="#544B45" transform="translate(72,95)"/>
<path d="M0 0 C0.66 0.33 1.32 0.66 2 1 C1.34 2.65 0.68 4.3 0 6 C1.65 6 3.3 6 5 6 C3.45730076 10.72065967 1.92205381 15.41664092 0 20 C-2 20 -4 20 -6 20 C-6.33 21.65 -6.66 23.3 -7 25 C-7.66 25 -8.32 25 -9 25 C-9 26.32 -9 27.64 -9 29 C-9.99 28.67 -10.98 28.34 -12 28 C-12 27.34 -12 26.68 -12 26 C-12.66 25.67 -13.32 25.34 -14 25 C-13.34 25 -12.68 25 -12 25 C-12 22.36 -12 19.72 -12 17 C-11.236875 16.71125 -10.47375 16.4225 -9.6875 16.125 C-6.84970692 15.03730987 -6.84970692 15.03730987 -4 13 C-3.64159778 10.67038557 -3.31151288 8.33634657 -3 6 C-1.4375 2.5625 -1.4375 2.5625 0 0 Z " fill="#A49A93" transform="translate(52,26)"/>
<path d="M0 0 C1.32 1.65 2.64 3.3 4 5 C5.32 5 6.64 5 8 5 C9.77409808 3.07977297 9.77409808 3.07977297 11 1 C11.66 1.33 12.32 1.66 13 2 C12.67 2.33 12.34 2.66 12 3 C11.76712992 4.68183948 11.58735834 6.3712416 11.4375 8.0625 C11.35371094 8.98160156 11.26992187 9.90070312 11.18359375 10.84765625 C11.12300781 11.55792969 11.06242187 12.26820312 11 13 C11.66 13 12.32 13 13 13 C12.67 13.99 12.34 14.98 12 16 C8.04 16 4.08 16 0 16 C0 10.72 0 5.44 0 0 Z " fill="#43322C" transform="translate(56,41)"/>
<path d="M0 0 C0.66 0.33 1.32 0.66 2 1 C-3.625 6 -3.625 6 -7 6 C-7.02715383 7.74991334 -7.04646551 9.49994945 -7.0625 11.25 C-7.07410156 12.22453125 -7.08570313 13.1990625 -7.09765625 14.203125 C-7.10699029 16.89559897 -7.10699029 16.89559897 -6.46875 19.01171875 C-5.847997 21.64474606 -6.1419587 23.88073639 -6.4375 26.5625 C-6.74297988 29.4123566 -7 32.13169534 -7 35 C-9.375 36.75 -9.375 36.75 -12 38 C-12.66 37.67 -13.32 37.34 -14 37 C-12.515 36.505 -12.515 36.505 -11 36 C-11 35.34 -11 34.68 -11 34 C-11.66 34 -12.32 34 -13 34 C-12.25 29.25 -12.25 29.25 -10 27 C-9.95833998 24.6670386 -9.95833998 22.3329614 -10 20 C-9.67 19.34 -9.34 18.68 -9 18 C-9.66 18 -10.32 18 -11 18 C-10.67 13.71 -10.34 9.42 -10 5 C-7.98177083 4.28385417 -5.96354167 3.56770833 -3.9453125 2.8515625 C-1.81842006 2.06122217 -1.81842006 2.06122217 0 0 Z " fill="#BDAE96" transform="translate(42,20)"/>
<path d="M0 0 C-0.33 4.62 -0.66 9.24 -1 14 C-7.27 14 -13.54 14 -20 14 C-18.68 13.34 -17.36 12.68 -16 12 C-14.13806579 10.55700099 -12.30680237 9.07395967 -10.5 7.5625 C-1.42998353 0 -1.42998353 0 0 0 Z " fill="#373234" transform="translate(71,130)"/>
<path d="M0 0 C4.875 1.875 4.875 1.875 6 3 C5.909084 5.70108504 5.76259234 8.36930311 5.5625 11.0625 C5.51029297 11.82111328 5.45808594 12.57972656 5.40429688 13.36132812 C5.27424165 15.24121722 5.13771962 17.12065685 5 19 C2.61328125 18.6640625 2.61328125 18.6640625 0 18 C-2.95621343 13.71858745 -3.58195057 10.14056336 -3 5 C-1.5 3.1875 -1.5 3.1875 0 2 C0 1.34 0 0.68 0 0 Z " fill="#AC9581" transform="translate(99,4)"/>
<path d="M0 0 C0.66 0 1.32 0 2 0 C1.67 4.29 1.34 8.58 1 13 C1.66 13 2.32 13 3 13 C3.08131463 14.43655854 3.13933559 15.8744483 3.1875 17.3125 C3.22230469 18.11300781 3.25710937 18.91351563 3.29296875 19.73828125 C2.9333405 22.51461134 2.05689932 23.19496591 0 25 C-0.71447643 27.10332891 -0.71447643 27.10332891 -1 29 C-0.34 29 0.32 29 1 29 C1 29.66 1 30.32 1 31 C0.21625 31.7425 -0.5675 32.485 -1.375 33.25 C-4.14152723 36.14826662 -5.02011258 38.169531 -6 42 C-6.33 42 -6.66 42 -7 42 C-7.17673419 37.4932782 -7.13551182 34.03374456 -5 30 C-4.34 29.67 -3.68 29.34 -3 29 C-2.0232343 25.48858911 -1.86480231 22.13037625 -1.875 18.5 C-1.87242188 17.5821875 -1.86984375 16.664375 -1.8671875 15.71875 C-1.99755965 13.04995546 -2.40621394 10.60134847 -3 8 C-2.34 8 -1.68 8 -1 8 C-0.67 5.36 -0.34 2.72 0 0 Z " fill="#A49484" transform="translate(30,25)"/>
<path d="M0 0 C0.33 0 0.66 0 1 0 C2.11165232 4.4378561 2.11527763 8.76956386 2.0625 13.3125 C2.05798828 14.05306641 2.05347656 14.79363281 2.04882812 15.55664062 C2.03712175 17.37112899 2.01918898 19.18557534 2 21 C5.63 21 9.26 21 13 21 C12.67 22.32 12.34 23.64 12 25 C12.99 24.67 13.98 24.34 15 24 C15 24.66 15 25.32 15 26 C13.41632253 25.85795259 11.83306682 25.71119847 10.25 25.5625 C9.36828125 25.48128906 8.4865625 25.40007813 7.578125 25.31640625 C3.17174515 24.77562327 3.17174515 24.77562327 1 24 C-0.25 21.4375 -0.25 21.4375 -1 19 C-1.66 19 -2.32 19 -3 19 C-2.34 20.98 -1.68 22.96 -1 25 C-1.99 24.34 -2.98 23.68 -4 23 C-4 22.34 -4 21.68 -4 21 C-4.66 21 -5.32 21 -6 21 C-6 19.35 -6 17.7 -6 16 C-4.68 16 -3.36 16 -2 16 C-0.89485234 12.68455701 -0.67892369 9.79589889 -0.4375 6.3125 C-0.35371094 5.13300781 -0.26992188 3.95351563 -0.18359375 2.73828125 C-0.12300781 1.83464844 -0.06242187 0.93101563 0 0 Z " fill="#6B4848" transform="translate(54,36)"/>
<path d="M0 0 C0.90238747 2.70716242 1.11851302 4.23776768 1.09765625 7.01171875 C1.09443359 7.76904297 1.09121094 8.52636719 1.08789062 9.30664062 C1.07951172 10.09232422 1.07113281 10.87800781 1.0625 11.6875 C1.05798828 12.48478516 1.05347656 13.28207031 1.04882812 14.10351562 C1.0370585 16.06904257 1.01912348 18.03453085 1 20 C2.65 20 4.3 20 6 20 C6 20.33 6 20.66 6 21 C1.15758367 22.33583899 -2.93437617 23.25328119 -8 23 C-7.06871243 17.35749298 -6.17970669 12.83315417 -3 8 C-1.90658799 5.360901 -0.95842823 2.69272694 0 0 Z " fill="#807262" transform="translate(8,36)"/>
<path d="M0 0 C0.33 0 0.66 0 1 0 C1.3716832 12.10035306 0.22823191 23.97574024 -1 36 C-2.65 35.67 -4.3 35.34 -6 35 C-5.855625 34.030625 -5.71125 33.06125 -5.5625 32.0625 C-5.26049303 30.0022333 -4.99632677 27.9576406 -4.81640625 25.8828125 C-4.45033367 21.68418414 -3.74875176 17.95128473 -2.4375 13.9375 C-0.97606507 9.41905384 -0.82825139 5.72308665 -1 1 C-0.67 0.67 -0.34 0.34 0 0 Z " fill="#B8A999" transform="translate(50,106)"/>
<path d="M0 0 C0.66 0 1.32 0 2 0 C3.65625 1.79296875 3.65625 1.79296875 5.5 4.1875 C6.1084375 4.96480469 6.716875 5.74210937 7.34375 6.54296875 C8.9781336 8.9675614 10.0240629 11.25273705 11 14 C10.01 13.67 9.02 13.34 8 13 C7.938125 13.61875 7.87625 14.2375 7.8125 14.875 C7 17 7 17 4.4375 18.25 C3.633125 18.4975 2.82875 18.745 2 19 C0.48578999 17.48578999 0.78690144 16.07527232 0.68359375 13.96484375 C0.64169922 13.15595703 0.59980469 12.34707031 0.55664062 11.51367188 C0.51732422 10.66353516 0.47800781 9.81339844 0.4375 8.9375 C0.39431641 8.08349609 0.35113281 7.22949219 0.30664062 6.34960938 C0.20023298 4.23327963 0.09958269 2.11666187 0 0 Z " fill="#867056" transform="translate(124,21)"/>
<path d="M0 0 C0 2.64 0 5.28 0 8 C0.66 8.33 1.32 8.66 2 9 C0.1875 11 0.1875 11 -2 13 C-2.99 13 -3.98 13 -5 13 C-5 13.66 -5 14.32 -5 15 C-6.65 15 -8.3 15 -10 15 C-10.06363291 10.90931322 -10.08719859 7.35216911 -7.4453125 4.06640625 C-2.74505396 0 -2.74505396 0 0 0 Z " fill="#373030" transform="translate(60,115)"/>
<path d="M0 0 C1.921875 0.89453125 1.921875 0.89453125 4 3 C4.81460143 6.19308392 5.01962102 9.40699928 5.25 12.6875 C5.36601563 14.02651367 5.36601563 14.02651367 5.484375 15.39257812 C5.6727517 17.59423076 5.84394343 19.79585957 6 22 C7.32 21.67 8.64 21.34 10 21 C9.34 22.32 8.68 23.64 8 25 C4.125 23.125 4.125 23.125 3 22 C2.34 23.32 1.68 24.64 1 26 C0.0197752 20.31160882 -0.11948801 14.82705667 -0.0625 9.0625 C-0.05573242 7.75055664 -0.05573242 7.75055664 -0.04882812 6.41210938 C-0.03714834 4.27470953 -0.01921689 2.13734537 0 0 Z " fill="#9F8C74" transform="translate(120,17)"/>
<path d="M0 0 C0.94875 0.04125 1.8975 0.0825 2.875 0.125 C2.875 2.105 2.875 4.085 2.875 6.125 C3.535 6.125 4.195 6.125 4.875 6.125 C4.545 7.115 4.215 8.105 3.875 9.125 C3.215 9.125 2.555 9.125 1.875 9.125 C1.771875 9.7025 1.66875 10.28 1.5625 10.875 C0.76603535 13.48161158 -0.31565277 15.0985311 -2.125 17.125 C-2.785 17.125 -3.445 17.125 -4.125 17.125 C-4.34626178 14.66720024 -4.55250395 12.20972352 -4.75 9.75 C-4.81445312 9.05132812 -4.87890625 8.35265625 -4.9453125 7.6328125 C-5.08619739 5.80130889 -5.11261659 3.96187252 -5.125 2.125 C-3.125 0.125 -3.125 0.125 0 0 Z " fill="#231A1C" transform="translate(59.125,96.875)"/>
<path d="M0 0 C0.33 0 0.66 0 1 0 C1.05607422 1.80597656 1.05607422 1.80597656 1.11328125 3.6484375 C1.17892928 5.22399011 1.24537701 6.79950954 1.3125 8.375 C1.33505859 9.1690625 1.35761719 9.963125 1.38085938 10.78125 C1.47785075 12.86215581 1.72994825 14.93441332 2 17 C2.99 17.66 3.98 18.32 5 19 C5.33 18.34 5.66 17.68 6 17 C6.99 17.66 7.98 18.32 9 19 C6 21 6 21 2.4375 20.9375 C0.7359375 20.9684375 0.7359375 20.9684375 -1 21 C-1.66 21.99 -2.32 22.98 -3 24 C-3.66 24 -4.32 24 -5 24 C-3.125 19.25 -3.125 19.25 -2 17 C-2.66 17 -3.32 17 -4 17 C-4.08121924 15.39667209 -4.13929134 13.79215974 -4.1875 12.1875 C-4.22230469 11.29417969 -4.25710937 10.40085937 -4.29296875 9.48046875 C-3.94492139 6.53366775 -3.19547287 5.88183389 -1 4 C-0.28552357 1.89667109 -0.28552357 1.89667109 0 0 Z " fill="#B8A491" transform="translate(71,37)"/>
<path d="M0 0 C1.4540625 0.0309375 1.4540625 0.0309375 2.9375 0.0625 C2.9375 1.7125 2.9375 3.3625 2.9375 5.0625 C4.54625 4.93875 4.54625 4.93875 6.1875 4.8125 C9.9375 5.0625 9.9375 5.0625 12.375 6.6875 C14.33394605 9.665098 14.25535906 11.56605037 13.9375 15.0625 C13.6075 15.0625 13.2775 15.0625 12.9375 15.0625 C12.9375 13.4125 12.9375 11.7625 12.9375 10.0625 C12.22464844 10.02511719 11.51179688 9.98773438 10.77734375 9.94921875 C4.8381577 9.54154918 0.24628253 8.77587774 -5.0625 6.0625 C-3.98897059 0.08140756 -3.98897059 0.08140756 0 0 Z " fill="#685F54" transform="translate(57.0625,25.9375)"/>
<path d="M0 0 C0.99 0 1.98 0 3 0 C4.32594359 5.96674616 4.0884587 11.92583615 4 18 C0.04 18.495 0.04 18.495 -4 19 C-3.67 21.64 -3.34 24.28 -3 27 C-5.61392442 24.38607558 -5.66744691 22.48971875 -6.03125 18.91015625 C-6 17 -6 17 -4.8125 15 C-3 14 -3 14 1 14 C0.67 9.38 0.34 4.76 0 0 Z " fill="#5F472C" transform="translate(7,74)"/>
<path d="M0 0 C1.31602523 0.61754259 2.62773556 1.24428742 3.9375 1.875 C4.66839844 2.22304687 5.39929687 2.57109375 6.15234375 2.9296875 C8 4 8 4 9 6 C11.32156597 6.40729228 13.6568787 6.74438677 16 7 C14.68 5.35 13.36 3.7 12 2 C14.31 2 16.62 2 19 2 C19 1.34 19 0.68 19 0 C20.65 0 22.3 0 24 0 C23 2 23 2 20 4 C19.690625 4.66 19.38125 5.32 19.0625 6 C17.66620752 8.62831525 16.83964663 9.09837734 14 10 C10.546875 9.3203125 10.546875 9.3203125 6.75 8.125 C6.1003125 7.92519531 5.450625 7.72539063 4.78125 7.51953125 C3.18340837 7.02608016 1.59110197 6.51476828 0 6 C0 4.02 0 2.04 0 0 Z " fill="#AE997B" transform="translate(47,67)"/>
<path d="M0 0 C1.27351308 2.54702616 0.80191925 3.4282945 0.0625 6.125 C-0.13214844 6.84945313 -0.32679687 7.57390625 -0.52734375 8.3203125 C-0.68332031 8.87460937 -0.83929688 9.42890625 -1 10 C-0.01 10 0.98 10 2 10 C2 10.66 2 11.32 2 12 C-1.75960806 15.75960806 -4.75900345 16.58894145 -10 17 C-9.79503906 16.46890625 -9.59007812 15.9378125 -9.37890625 15.390625 C-9.10949219 14.68421875 -8.84007812 13.9778125 -8.5625 13.25 C-8.16224609 12.20585937 -8.16224609 12.20585937 -7.75390625 11.140625 C-7.03853307 9.10940997 -6.48634348 7.0964709 -6 5 C-4.68 5 -3.36 5 -2 5 C-2 3.68 -2 2.36 -2 1 C-1.34 0.67 -0.68 0.34 0 0 Z " fill="#B3A28D" transform="translate(42,8)"/>
<path d="M0 0 C1.32548198 2.65096396 1.01858852 4.49329344 0.87890625 7.453125 C0.83056641 8.54753906 0.78222656 9.64195313 0.73242188 10.76953125 C0.67634766 11.91808594 0.62027344 13.06664063 0.5625 14.25 C0.45859328 16.50516056 0.35569687 18.76036794 0.25390625 21.015625 C0.20564697 22.01883789 0.1573877 23.02205078 0.10766602 24.05566406 C-0.0014596 27.03991557 -0.01804458 30.01403853 0 33 C-2.20322164 29.37116435 -2.6487216 25.63882995 -3.125 21.5 C-3.25237549 20.44619141 -3.25237549 20.44619141 -3.38232422 19.37109375 C-4.07365886 13.239498 -4.21026804 7.16786257 -4 1 C-2.68 0.67 -1.36 0.34 0 0 Z " fill="#685A47" transform="translate(17,74)"/>
<path d="M0 0 C1.65 0 3.3 0 5 0 C5 0.66 5 1.32 5 2 C4.34 2 3.68 2 3 2 C3.33 2.66 3.66 3.32 4 4 C4.66 3.67 5.32 3.34 6 3 C4.51697598 7.44907205 0.91714499 9.74579392 -3 12 C-3.66 12 -4.32 12 -5 12 C-5 8.7 -5 5.4 -5 2 C-3.35 2 -1.7 2 0 2 C0 1.34 0 0.68 0 0 Z " fill="#221D1D" transform="translate(55,128)"/>
<path d="M0 0 C0.66 0.33 1.32 0.66 2 1 C1.34 2.65 0.68 4.3 0 6 C0.66 6.33 1.32 6.66 2 7 C0.55581948 14.34125099 0.55581948 14.34125099 -1.6875 17 C-4.85927812 18.37157973 -7.58719939 18.19689234 -11 18 C-11 20.64 -11 23.28 -11 26 C-11.99 25.67 -12.98 25.34 -14 25 C-13.34 25 -12.68 25 -12 25 C-12 22.36 -12 19.72 -12 17 C-11.236875 16.71125 -10.47375 16.4225 -9.6875 16.125 C-6.84970692 15.03730987 -6.84970692 15.03730987 -4 13 C-3.64159778 10.67038557 -3.31151288 8.33634657 -3 6 C-1.4375 2.5625 -1.4375 2.5625 0 0 Z " fill="#B3A89C" transform="translate(52,26)"/>
<path d="M0 0 C3.30714584 -0.36887653 3.30714584 -0.36887653 6 -1 C6 -0.01 6 0.98 6 2 C5.34 2 4.68 2 4 2 C4 3.65 4 5.3 4 7 C3.34 7 2.68 7 2 7 C2.33 5.35 2.66 3.7 3 2 C2.29875 2.20625 1.5975 2.4125 0.875 2.625 C-2.63785954 3.08319907 -4.66731042 2.13311446 -8 1 C-13.0668175 0.63150418 -17.23207868 1.22371559 -22 3 C-22.66 3.99 -23.32 4.98 -24 6 C-24.33 4.02 -24.66 2.04 -25 0 C-16.74003213 -1.93449062 -8.31532223 -1.18790318 0 0 Z " fill="#8B7C6F" transform="translate(74,93)"/>
<path d="M0 0 C0.33 0 0.66 0 1 0 C1.28571429 8.57142857 1.28571429 8.57142857 -1 12 C-2.32 12 -3.64 12 -5 12 C-5.99 13.485 -5.99 13.485 -7 15 C-7.99 14.67 -8.98 14.34 -10 14 C-10 12.68 -10 11.36 -10 10 C-9.34 10 -8.68 10 -8 10 C-7.67 8.35 -7.34 6.7 -7 5 C-4.92446352 4.4465236 -3.15634036 4 -1 4 C-0.67 2.68 -0.34 1.36 0 0 Z " fill="#8F8070" transform="translate(53,41)"/>
<path d="M0 0 C0.33 0 0.66 0 1 0 C1.02898097 4.10415189 1.0467922 8.20827753 1.0625 12.3125 C1.07087891 13.47974609 1.07925781 14.64699219 1.08789062 15.84960938 C1.09111328 16.96787109 1.09433594 18.08613281 1.09765625 19.23828125 C1.10289307 20.26993408 1.10812988 21.30158691 1.11352539 22.36450195 C1 25 1 25 0 28 C-0.99 27.67 -1.98 27.34 -3 27 C-2.4262611 17.91076799 -1.38949558 8.99799566 0 0 Z " fill="#B7A68C" transform="translate(143,68)"/>
<path d="M0 0 C0.33 0.66 0.66 1.32 1 2 C1.66 2 2.32 2 3 2 C2.5359375 3.5778125 2.5359375 3.5778125 2.0625 5.1875 C0.79358184 9.54864679 0.79358184 9.54864679 0 14 C0.66 14.66 1.32 15.32 2 16 C1.67 16.99 1.34 17.98 1 19 C-1.5625 16.8125 -1.5625 16.8125 -4 14 C-3.8125 11.1875 -3.8125 11.1875 -3 9 C-3.66 9 -4.32 9 -5 9 C-3.7508258 5.54074837 -2.32472205 2.85306797 0 0 Z " fill="#9C8E7E" transform="translate(21,108)"/>
<path d="M0 0 C3.64459007 0.24297267 6.32720307 1.05946194 9.75 2.25 C12.50065232 2.41857483 12.50065232 2.41857483 14.75 2.25 C14.25769231 8.77307692 14.25769231 8.77307692 11.6875 11.1875 C11.048125 11.538125 10.40875 11.88875 9.75 12.25 C9.42 10.27 9.09 8.29 8.75 6.25 C8.09 6.25 7.43 6.25 6.75 6.25 C6.42 5.59 6.09 4.93 5.75 4.25 C4.76 3.92 3.77 3.59 2.75 3.25 C2.75 2.59 2.75 1.93 2.75 1.25 C0.11 1.58 -2.53 1.91 -5.25 2.25 C-3.25 0.25 -3.25 0.25 0 0 Z " fill="#7B6F65" transform="translate(62.25,92.75)"/>
<path d="M0 0 C3.3125 -0.25 3.3125 -0.25 7 0 C8.9375 1.75 8.9375 1.75 10 4 C10 8 10 8 8.3125 10.3125 C6 12 6 12 3.25 11.75 C2.5075 11.5025 1.765 11.255 1 11 C1.57344937 8.13275314 1.8614515 7.1385485 4 5 C4.6425235 2.93125966 4.6425235 2.93125966 5 1 C3.35 1 1.7 1 0 1 C0 0.67 0 0.34 0 0 Z " fill="#594B4C" transform="translate(8,57)"/>
<path d="M0 0 C0.99 0 1.98 0 3 0 C3 1.65 3 3.3 3 5 C3.7528125 4.82082031 4.505625 4.64164062 5.28125 4.45703125 C14.89319963 2.53230833 22.63910711 3.76492159 32 6 C28.18091541 8.59697752 25.40326989 7.73083318 21 7 C18.24821098 6.89857616 15.50275386 6.94864265 12.75 7 C5.40224913 7.13408304 5.40224913 7.13408304 2 6 C2 4.35 2 2.7 2 1 C1.34 0.67 0.68 0.34 0 0 Z " fill="#B6A593" transform="translate(46,86)"/>
<path d="M0 0 C0.33 0 0.66 0 1 0 C1.16798051 2.27073652 1.33434113 4.54159293 1.5 6.8125 C1.5928125 8.07707031 1.685625 9.34164062 1.78125 10.64453125 C1.91914781 12.75978517 2 14.88025592 2 17 C-0.375 18.75 -0.375 18.75 -3 20 C-3.66 19.67 -4.32 19.34 -5 19 C-4.01 18.67 -3.02 18.34 -2 18 C-2 17.34 -2 16.68 -2 16 C-2.66 16 -3.32 16 -4 16 C-3.25 11.25 -3.25 11.25 -1 9 C-0.95833998 6.6670386 -0.95833998 4.3329614 -1 2 C-0.67 1.34 -0.34 0.68 0 0 Z " fill="#B6A890" transform="translate(33,38)"/>
<path d="M0 0 C1.32 0 2.64 0 4 0 C4 1.65 4 3.3 4 5 C4.99 5.33 5.98 5.66 7 6 C6.34 6 5.68 6 5 6 C5.33 7.65 5.66 9.3 6 11 C2.56801397 9.76067171 -0.30325632 8.49698489 -3 6 C-3 5.01 -3 4.02 -3 3 C-2.34 3 -1.68 3 -1 3 C-0.67 2.01 -0.34 1.02 0 0 Z " fill="#A1927E" transform="translate(44,87)"/>
<path d="M0 0 C0.33 0 0.66 0 1 0 C1.23889655 9.59567793 0.78831859 18.53149174 -1 28 C-1.66 28 -2.32 28 -3 28 C-3.30121725 20.43610025 -2.38939485 13.42362796 -1 6 C-0.66289724 4.00063189 -0.32853277 2.00079417 0 0 Z " fill="#A1917A" transform="translate(143,53)"/>
<path d="M0 0 C0.66 0 1.32 0 2 0 C2.10477512 5.78591511 1.99250545 11.29309366 1 17 C-0.65 16.67 -2.3 16.34 -4 16 C-2.68 10.72 -1.36 5.44 0 0 Z " fill="#94877A" transform="translate(48,125)"/>
<path d="M0 0 C1.32 0 2.64 0 4 0 C8 5.11111111 8 5.11111111 8 8 C-0.72941176 10.63529412 -0.72941176 10.63529412 -4 9 C-2.73046875 7.50260417 -1.4609375 6.00520833 -0.19140625 4.5078125 C1.0878152 2.99405921 1.0878152 2.99405921 2 1 C1.34 0.67 0.68 0.34 0 0 Z " fill="#C9B597" transform="translate(84,52)"/>
<path d="M0 0 C0.66 0 1.32 0 2 0 C2.66 1.65 3.32 3.3 4 5 C6.97 5.33 9.94 5.66 13 6 C13 6.33 13 6.66 13 7 C10.03 6.67 7.06 6.34 4 6 C4.99 7.485 4.99 7.485 6 9 C9.34613512 9.58687784 9.34613512 9.58687784 13.125 9.6875 C15.04699219 9.78611328 15.04699219 9.78611328 17.0078125 9.88671875 C17.99523437 9.92410156 18.98265625 9.96148437 20 10 C20 10.33 20 10.66 20 11 C13.45688671 11.87557031 8.23352019 12.3548854 2 10 C1.34 6.7 0.68 3.4 0 0 Z " fill="#4F3F32" transform="translate(51,55)"/>
<path d="M0 0 C1.25248502 2.50497004 1.11374406 4.20853274 1.09765625 7.0078125 C1.09443359 7.99394531 1.09121094 8.98007813 1.08789062 9.99609375 C1.07951172 11.02863281 1.07113281 12.06117187 1.0625 13.125 C1.05798828 14.16527344 1.05347656 15.20554687 1.04882812 16.27734375 C1.03701952 18.85161962 1.02055075 21.42578146 1 24 C0.67 23.01 0.34 22.02 0 21 C-0.66 21 -1.32 21 -2 21 C-2.66 22.32 -3.32 23.64 -4 25 C-4.66 25 -5.32 25 -6 25 C-4.79618552 22.50638429 -3.54571278 20.31856917 -2 18 C-2 17.01 -2 16.02 -2 15 C-1.86862981 12.6241561 -1.72094198 10.24919218 -1.5625 7.875 C-1.48128906 6.61429687 -1.40007812 5.35359375 -1.31640625 4.0546875 C-1 1 -1 1 0 0 Z " fill="#59514B" transform="translate(71,105)"/>
<path d="M0 0 C0.33 0 0.66 0 1 0 C1 6.6 1 13.2 1 20 C-0.32 19.67 -1.64 19.34 -3 19 C-2.34 20.98 -1.68 22.96 -1 25 C-1.99 24.34 -2.98 23.68 -4 23 C-4 22.34 -4 21.68 -4 21 C-4.66 21 -5.32 21 -6 21 C-6 19.35 -6 17.7 -6 16 C-4.68 16 -3.36 16 -2 16 C-0.89485234 12.68455701 -0.67892369 9.79589889 -0.4375 6.3125 C-0.35371094 5.13300781 -0.26992188 3.95351563 -0.18359375 2.73828125 C-0.12300781 1.83464844 -0.06242187 0.93101563 0 0 Z " fill="#746862" transform="translate(54,36)"/>
<path d="M0 0 C0.33 0 0.66 0 1 0 C1 3.3 1 6.6 1 10 C1.66 10 2.32 10 3 10 C3 11.32 3 12.64 3 14 C-1.20763224 12.4972742 -2.8027758 9.76667005 -5 6 C-5 5.34 -5 4.68 -5 4 C-3.35 3.67 -1.7 3.34 0 3 C0 2.01 0 1.02 0 0 Z " fill="#5A4C3D" transform="translate(15,107)"/>
<path d="M0 0 C0.33 0 0.66 0 1 0 C1.02687279 1.81242052 1.04633715 3.62495233 1.0625 5.4375 C1.07410156 6.44683594 1.08570312 7.45617188 1.09765625 8.49609375 C1 11 1 11 0 12 C-0.23363881 13.84891946 -0.41303635 15.70488031 -0.5625 17.5625 C-0.64628906 18.57441406 -0.73007813 19.58632812 -0.81640625 20.62890625 C-0.87699219 21.41136719 -0.93757813 22.19382812 -1 23 C-1.66 23 -2.32 23 -3 23 C-3 15.74 -3 8.48 -3 1 C-2.67 1 -2.34 1 -2 1 C-2 3.97 -2 6.94 -2 10 C-1.34 10 -0.68 10 0 10 C0 6.7 0 3.4 0 0 Z " fill="#AFA186" transform="translate(120,50)"/>
<path d="M0 0 C3.29714793 0.32971479 4.6226839 0.6226839 7 3 C7 4.32 7 5.64 7 7 C3.625 6.75 3.625 6.75 0 6 C-1.4375 3.9375 -1.4375 3.9375 -2 2 C-1.34 1.34 -0.68 0.68 0 0 Z " fill="#483926" transform="translate(79,29)"/>
<path d="M0 0 C0.33 0 0.66 0 1 0 C1.3690205 12.66970387 1.3690205 12.66970387 -1 18 C-1.33 18 -1.66 18 -2 18 C-2.20190089 11.64012196 -1.6277833 6.14778871 0 0 Z M-8 14 C-7.67 14.66 -7.34 15.32 -7 16 C-6.34 16 -5.68 16 -5 16 C-5 16.66 -5 17.32 -5 18 C-4.01 18.33 -3.02 18.66 -2 19 C-3.65 19 -5.3 19 -7 19 C-7 18.34 -7 17.68 -7 17 C-8.32 16.67 -9.64 16.34 -11 16 C-10.01 15.34 -9.02 14.68 -8 14 Z " fill="#B0A188" transform="translate(137,82)"/>
<path d="M0 0 C0.66 0 1.32 0 2 0 C1.67 4.29 1.34 8.58 1 13 C1.66 13 2.32 13 3 13 C3.08096803 14.45742463 3.13917774 15.91612807 3.1875 17.375 C3.22230469 18.18710937 3.25710937 18.99921875 3.29296875 19.8359375 C3.19628906 20.55007812 3.09960938 21.26421875 3 22 C2.01 22.66 1.02 23.32 0 24 C0 16.08 0 8.16 0 0 Z " fill="#AB9C88" transform="translate(30,25)"/>
<path d="M0 0 C1.31291016 -0.03867187 1.31291016 -0.03867187 2.65234375 -0.078125 C5.0625 0.25 5.0625 0.25 6.8671875 1.56640625 C8.64784006 4.07444956 8.261526 6.26460998 8.0625 9.25 C7.7325 9.25 7.4025 9.25 7.0625 9.25 C7.0625 7.6 7.0625 5.95 7.0625 4.25 C6.30324219 4.20101562 5.54398438 4.15203125 4.76171875 4.1015625 C3.76785156 4.02679688 2.77398437 3.95203125 1.75 3.875 C0.76386719 3.80539063 -0.22226562 3.73578125 -1.23828125 3.6640625 C-3.9375 3.25 -3.9375 3.25 -6.9375 1.25 C-4.48367866 0.02308933 -2.73765897 0.04824069 0 0 Z " fill="#362E24" transform="translate(62.9375,31.75)"/>
<path d="M0 0 C-1.51726498 3.77611453 -3.74151707 5.7694508 -6.875 8.3125 C-8.17050781 9.38951172 -8.17050781 9.38951172 -9.4921875 10.48828125 C-12 12 -12 12 -14.3203125 11.73046875 C-14.87460937 11.48941406 -15.42890625 11.24835938 -16 11 C-15.40832031 10.54109375 -14.81664062 10.0821875 -14.20703125 9.609375 C-13.41683594 8.99578125 -12.62664063 8.3821875 -11.8125 7.75 C-10.58273438 6.79673828 -10.58273438 6.79673828 -9.328125 5.82421875 C-7.5507188 4.4315196 -5.80020774 3.0044277 -4.0625 1.5625 C-2 0 -2 0 0 0 Z " fill="#201B1F" transform="translate(67,131)"/>
<path d="M0 0 C1.65 0 3.3 0 5 0 C4.814375 0.804375 4.62875 1.60875 4.4375 2.4375 C4.2209375 3.7059375 4.2209375 3.7059375 4 5 C4.33 5.33 4.66 5.66 5 6 C5.04080783 7.99958364 5.04254356 10.00045254 5 12 C4.01 11.67 3.02 11.34 2 11 C0.60955102 7.12137916 0 4.13537997 0 0 Z " fill="#291F15" transform="translate(3,93)"/>
<path d="M0 0 C1.65 0 3.3 0 5 0 C4 2 4 2 1 4 C0.690625 4.66 0.38125 5.32 0.0625 6 C-1.24187242 8.45528927 -2.46627297 8.98650919 -5 10 C-5.33 9.34 -5.66 8.68 -6 8 C-5.01 8 -4.02 8 -3 8 C-4.15173355 5.53199953 -5.04783565 3.95216435 -7 2 C-4.69 2 -2.38 2 0 2 C0 1.34 0 0.68 0 0 Z " fill="#BEA48B" transform="translate(66,67)"/>
<path d="M0 0 C0.99 0 1.98 0 3 0 C1.82744291 3.33727786 0.81131596 5.77437487 -2 8 C-2.66 8 -3.32 8 -4 8 C-4.33 9.32 -4.66 10.64 -5 12 C-6.32 11.34 -7.64 10.68 -9 10 C-8.2575 9.278125 -7.515 8.55625 -6.75 7.8125 C-3.98447612 5.10300342 -3.98447612 5.10300342 -1.875 2.1875 C-1.25625 1.465625 -0.6375 0.74375 0 0 Z " fill="#C9B99F" transform="translate(86,91)"/>
<path d="M0 0 C0.66 0 1.32 0 2 0 C2.33 5.94 2.66 11.88 3 18 C2.34 18 1.68 18 1 18 C-0.3792223 11.69661213 -1.41117949 6.3503077 0 0 Z " fill="#948575" transform="translate(9,37)"/>
<path d="M0 0 C-0.33913334 3.16524451 -0.97247195 3.97600118 -3.4375 6.125 C-4.283125 6.74375 -5.12875 7.3625 -6 8 C-6.66 8.66 -7.32 9.32 -8 10 C-8.33 8.02 -8.66 6.04 -9 4 C-4.5 0 -4.5 0 0 0 Z " fill="#C0AF95" transform="translate(90,86)"/>
<path d="M0 0 C1.485 0.99 1.485 0.99 3 2 C3.11027233 4.79257231 3.05024404 7.2984254 2.8125 10.0625 C2.76802734 10.80822266 2.72355469 11.55394531 2.67773438 12.32226562 C2.53788789 14.22314198 2.27773435 16.11432994 2 18 C1.34 18.33 0.68 18.66 0 19 C0 12.73 0 6.46 0 0 Z " fill="#8C7D67" transform="translate(120,17)"/>
<path d="M0 0 C0.99 0 1.98 0 3 0 C3.91893304 3.59219279 4.25145386 5.42165612 2.75 8.875 C2.1725 9.57625 1.595 10.2775 1 11 C0.01 11 -0.98 11 -2 11 C-2 10.34 -2 9.68 -2 9 C-1.34 9 -0.68 9 0 9 C-0.185625 8.443125 -0.37125 7.88625 -0.5625 7.3125 C-1.07551165 4.600867 -0.6640724 2.65628961 0 0 Z " fill="#2D231F" transform="translate(68,99)"/>
<path d="M0 0 C0.33 0 0.66 0 1 0 C1.06058594 0.73605469 1.12117187 1.47210938 1.18359375 2.23046875 C1.26738281 3.20628906 1.35117188 4.18210937 1.4375 5.1875 C1.51871094 6.15042969 1.59992187 7.11335938 1.68359375 8.10546875 C1.93727471 10.99489686 1.93727471 10.99489686 2.66015625 13.73828125 C2.77230469 14.48464844 2.88445313 15.23101562 3 16 C2.34 16.66 1.68 17.32 1 18 C-2 13.25 -2 13.25 -2 11 C-1.34 11 -0.68 11 0 11 C-0.25136719 10.06027344 -0.25136719 10.06027344 -0.5078125 9.1015625 C-0.71148437 8.28429687 -0.91515625 7.46703125 -1.125 6.625 C-1.33382813 5.81289062 -1.54265625 5.00078125 -1.7578125 4.1640625 C-1.83773438 3.44992188 -1.91765625 2.73578125 -2 2 C-1.34 1.34 -0.68 0.68 0 0 Z " fill="#3D2D20" transform="translate(8,94)"/>
<path d="M0 0 C3.36704285 -0.2295711 5.41370268 -0.33943529 8.375 1.375 C8.91125 1.91125 9.4475 2.4475 10 3 C10 3.66 10 4.32 10 5 C6.7 4.67 3.4 4.34 0 4 C0 2.68 0 1.36 0 0 Z " fill="#1D110A" transform="translate(57,51)"/>
<path d="M0 0 C0.66 0 1.32 0 2 0 C3.5078125 1.75 3.5078125 1.75 5.125 4 C5.66382813 4.7425 6.20265625 5.485 6.7578125 6.25 C7.16773438 6.8275 7.57765625 7.405 8 8 C5.525 7.01 5.525 7.01 3 6 C3 7.65 3 9.3 3 11 C2.34 11 1.68 11 1 11 C0.67 7.37 0.34 3.74 0 0 Z " fill="#7D6757" transform="translate(124,21)"/>
<path d="M0 0 C0 0.99 0 1.98 0 3 C-0.99 3 -1.98 3 -3 3 C-3 4.65 -3 6.3 -3 8 C-4.65 7.67 -6.3 7.34 -8 7 C-7.08529012 1.6946827 -5.46561428 0 0 0 Z " fill="#A6927E" transform="translate(54,3)"/>
<path d="M0 0 C1.03115279 3.26913624 0.9638984 5.86041348 0.5625 9.25 C0.46066406 10.14203125 0.35882812 11.0340625 0.25390625 11.953125 C0.12822266 12.96632813 0.12822266 12.96632813 0 14 C-0.66 14 -1.32 14 -2 14 C-2.33 15.32 -2.66 16.64 -3 18 C-3 14.37 -3 10.74 -3 7 C-2.34 7 -1.68 7 -1 7 C-0.67 4.69 -0.34 2.38 0 0 Z " fill="#867A6A" transform="translate(21,71)"/>
<path d="M0 0 C0.99 0.33 1.98 0.66 3 1 C3 1.99 3 2.98 3 4 C2.01 4 1.02 4 0 4 C0 7.96 0 11.92 0 16 C-3.30830483 11.5889269 -3.57852777 10.30317127 -3 5 C-1.5 3.1875 -1.5 3.1875 0 2 C0 1.34 0 0.68 0 0 Z " fill="#BDA692" transform="translate(99,4)"/>
<path d="M0 0 C-4.455 0.495 -4.455 0.495 -9 1 C-9.66 2.98 -10.32 4.96 -11 7 C-12.5625 5.75 -12.5625 5.75 -14 4 C-13.58984375 1.890625 -13.58984375 1.890625 -13 0 C-11.58456585 -0.19658808 -10.16755969 -0.38187546 -8.75 -0.5625 C-7.96109375 -0.66691406 -7.1721875 -0.77132812 -6.359375 -0.87890625 C-4 -1 -4 -1 0 0 Z " fill="#493C34" transform="translate(65,95)"/>
<path d="M0 0 C2.99324263 1.0975223 3.84610901 1.67682892 5.25 4.625 C5.4975 5.40875 5.745 6.1925 6 7 C5.01 6.67 4.02 6.34 3 6 C2.67 7.32 2.34 8.64 2 10 C0 8 0 8 -0.1953125 6.0546875 C-0.13020833 4.03645833 -0.06510417 2.01822917 0 0 Z " fill="#A7967E" transform="translate(129,28)"/>
<path d="M0 0 C1.4540625 0.0309375 1.4540625 0.0309375 2.9375 0.0625 C2.2775 1.3825 1.6175 2.7025 0.9375 4.0625 C-3.3525 4.0625 -7.6425 4.0625 -12.0625 4.0625 C-12.0625 3.7325 -12.0625 3.4025 -12.0625 3.0625 C-11.49660156 2.92972656 -10.93070312 2.79695312 -10.34765625 2.66015625 C-9.24744141 2.39525391 -9.24744141 2.39525391 -8.125 2.125 C-7.39410156 1.95097656 -6.66320312 1.77695313 -5.91015625 1.59765625 C-0.42403846 0.00865385 -0.42403846 0.00865385 0 0 Z " fill="#BDAD9B" transform="translate(89.0625,4.9375)"/>
<path d="M0 0 C5.94 0.99 5.94 0.99 12 2 C11.67 2.66 11.34 3.32 11 4 C8.03 4 5.06 4 2 4 C1.34 2.68 0.68 1.36 0 0 Z " fill="#27180C" transform="translate(55,61)"/>
<path d="M0 0 C0.33 0 0.66 0 1 0 C1.3125 2.3125 1.3125 2.3125 1 5 C-2.27178817 7.63560713 -3.72068147 8 -8 8 C-8 10.64 -8 13.28 -8 16 C-8.99 15.67 -9.98 15.34 -11 15 C-10.34 15 -9.68 15 -9 15 C-9 12.36 -9 9.72 -9 7 C-8.236875 6.71125 -7.47375 6.4225 -6.6875 6.125 C-3.84970692 5.03730987 -3.84970692 5.03730987 -1 3 C-0.67 2.01 -0.34 1.02 0 0 Z " fill="#C0B29C" transform="translate(49,36)"/>
<path d="M0 0 C-0.33 4.62 -0.66 9.24 -1 14 C-1.33 14 -1.66 14 -2 14 C-2 11.69 -2 9.38 -2 7 C-2.99 6.67 -3.98 6.34 -5 6 C-2.84615385 0 -2.84615385 0 0 0 Z " fill="#5D5650" transform="translate(71,130)"/>
<path d="M0 0 C1.09471933 3.284158 1 3.58508064 1 7 C0.01 7.66 -0.98 8.32 -2 9 C-2.33 8.01 -2.66 7.02 -3 6 C-4.32 5.67 -5.64 5.34 -7 5 C-4.69 3.35 -2.38 1.7 0 0 Z " fill="#2E282B" transform="translate(69,117)"/>
<path d="M0 0 C0.33 0 0.66 0 1 0 C1 2.64 1 5.28 1 8 C0.34 8 -0.32 8 -1 8 C-1 8.66 -1 9.32 -1 10 C-2.32 9.34 -3.64 8.68 -5 8 C-5 7.34 -5 6.68 -5 6 C-5.66 5.67 -6.32 5.34 -7 5 C-4.92446352 4.4465236 -3.15634036 4 -1 4 C-0.67 2.68 -0.34 1.36 0 0 Z " fill="#938881" transform="translate(53,41)"/>
<path d="M0 0 C1 3 1 3 0.875 6.0625 C0.936875 7.5165625 0.936875 7.5165625 1 9 C1.99 9.66 2.98 10.32 4 11 C3.67 11.99 3.34 12.98 3 14 C0.4375 11.8125 0.4375 11.8125 -2 9 C-1.8125 6.1875 -1.8125 6.1875 -1 4 C-1.66 4 -2.32 4 -3 4 C-2.67 3.01 -2.34 2.02 -2 1 C-1.34 0.67 -0.68 0.34 0 0 Z " fill="#8D8071" transform="translate(19,113)"/>
<path d="M0 0 C-0.6875 2.375 -0.6875 2.375 -2 5 C-4.625 6.3125 -4.625 6.3125 -7 7 C-7 6.34 -7 5.68 -7 5 C-7.66 4.67 -8.32 4.34 -9 4 C-3.375 0 -3.375 0 0 0 Z " fill="#675443" transform="translate(86,53)"/>
<path d="M0 0 C1.32 0 2.64 0 4 0 C4 2.64 4 5.28 4 8 C3.01 8 2.02 8 1 8 C-0.35439668 5.29120665 -0.06501451 2.99066732 0 0 Z " fill="#A18770" transform="translate(100,15)"/>
<path d="M0 0 C0.33 1.32 0.66 2.64 1 4 C-3.39453125 8.00390625 -3.39453125 8.00390625 -5 9 C-5.99 8.67 -6.98 8.34 -8 8 C-5.33333333 5.33333333 -2.66666667 2.66666667 0 0 Z " fill="#444043" transform="translate(66,133)"/>
<path d="M0 0 C0.33 0 0.66 0 1 0 C1.24942467 2.41611371 1.47507501 4.83059121 1.6875 7.25 C1.76033203 7.93191406 1.83316406 8.61382812 1.90820312 9.31640625 C2.30461213 14.11995065 2.06875474 14.90832702 -1 19 C-0.67 12.73 -0.34 6.46 0 0 Z " fill="#7E7161" transform="translate(17,96)"/>
<path d="M0 0 C1.40742022 2.81484045 0.66652164 4.56936113 0.0625 7.625 C-0.13214844 8.62789062 -0.32679687 9.63078125 -0.52734375 10.6640625 C-0.68332031 11.43492188 -0.83929688 12.20578125 -1 13 C-1.66 13 -2.32 13 -3 13 C-3.08121924 11.39667209 -3.13929134 9.79215974 -3.1875 8.1875 C-3.22230469 7.29417969 -3.25710937 6.40085937 -3.29296875 5.48046875 C-2.95081002 2.58352485 -2.24606427 1.77444972 0 0 Z " fill="#7A6B5F" transform="translate(70,41)"/>
<path d="M0 0 C0.33 0 0.66 0 1 0 C0.67 5.94 0.34 11.88 0 18 C-0.99 18 -1.98 18 -3 18 C-3.33 17.01 -3.66 16.02 -4 15 C-3.01 15 -2.02 15 -1 15 C-1.01160156 14.33613281 -1.02320312 13.67226563 -1.03515625 12.98828125 C-1.12478032 4.21792619 -1.12478032 4.21792619 0 0 Z " fill="#C7AE97" transform="translate(105,8)"/>
<path d="M0 0 C1.32 0.33 2.64 0.66 4 1 C3.01 1 2.02 1 1 1 C1.2475 1.886875 1.495 2.77375 1.75 3.6875 C2 7 2 7 0.0625 9.875 C-0.9584375 10.926875 -0.9584375 10.926875 -2 12 C-2.66 11.67 -3.32 11.34 -4 11 C-3.525625 9.9275 -3.05125 8.855 -2.5625 7.75 C-1.46233668 5.19160135 -0.54832997 2.74164983 0 0 Z " fill="#A29381" transform="translate(36,13)"/>
<path d="M0 0 C0 0.99 0 1.98 0 3 C-0.66 3 -1.32 3 -2 3 C-2 4.65 -2 6.3 -2 8 C-2.66 8 -3.32 8 -4 8 C-3.67 6.35 -3.34 4.7 -3 3 C-4.65 3.33 -6.3 3.66 -8 4 C-7.67 3.01 -7.34 2.02 -7 1 C-2.25 0 -2.25 0 0 0 Z " fill="#9C8E7C" transform="translate(80,92)"/>
<path d="M0 0 C3.41264084 0.23136548 5.64215935 0.7734712 8.6875 2.25 C8.6875 3.57 8.6875 4.89 8.6875 6.25 C8.0275 6.25 7.3675 6.25 6.6875 6.25 C6.3575 5.59 6.0275 4.93 5.6875 4.25 C4.6975 3.92 3.7075 3.59 2.6875 3.25 C2.6875 2.59 2.6875 1.93 2.6875 1.25 C0.0475 1.58 -2.5925 1.91 -5.3125 2.25 C-3.3125 0.25 -3.3125 0.25 0 0 Z " fill="#63564C" transform="translate(62.3125,92.75)"/>
<path d="M0 0 C0.33 0 0.66 0 1 0 C1.125 2.375 1.125 2.375 1 5 C0.34 5.66 -0.32 6.32 -1 7 C-0.01 7.99 0.98 8.98 2 10 C0.35 10.33 -1.3 10.66 -3 11 C-3.6875 9.1875 -3.6875 9.1875 -4 7 C-2.625 5.5 -2.625 5.5 -1 4 C-0.28552357 1.89667109 -0.28552357 1.89667109 0 0 Z " fill="#483C3B" transform="translate(13,58)"/>
<path d="M0 0 C2.71843438 3.62457917 3.41789544 4.80884715 4 9 C2.02 9.99 2.02 9.99 0 11 C0 7.37 0 3.74 0 0 Z " fill="#463E3B" transform="translate(56,41)"/>
<path d="M0 0 C0.66 0 1.32 0 2 0 C2.99 2.97 3.98 5.94 5 9 C4.34 9 3.68 9 3 9 C3 8.34 3 7.68 3 7 C2.34 7 1.68 7 1 7 C0.67 8.32 0.34 9.64 0 11 C0 7.37 0 3.74 0 0 Z " fill="#ADA18C" transform="translate(135,35)"/>
<path d="M0 0 C1.32 0 2.64 0 4 0 C4 0.66 4 1.32 4 2 C3.34 2 2.68 2 2 2 C1.67 2.99 1.34 3.98 1 5 C-2.0625 6.6875 -2.0625 6.6875 -5 8 C-5 6.68 -5 5.36 -5 4 C-4.0409375 3.8453125 -4.0409375 3.8453125 -3.0625 3.6875 C-2.381875 3.460625 -1.70125 3.23375 -1 3 C-0.67 2.01 -0.34 1.02 0 0 Z " fill="#1A1416" transform="translate(56,128)"/>
<path d="M0 0 C0.66 0 1.32 0 2 0 C1.67 1.65 1.34 3.3 1 5 C-1.64 5.66 -4.28 6.32 -7 7 C-6.25 5.0625 -6.25 5.0625 -5 3 C-2.9375 2.375 -2.9375 2.375 -1 2 C-0.67 1.34 -0.34 0.68 0 0 Z " fill="#332E2E" transform="translate(69,126)"/>
<path d="M0 0 C0.99 0.33 1.98 0.66 3 1 C2.01 2.485 2.01 2.485 1 4 C0.29187186 6.32108669 -0.38024152 8.65377147 -1 11 C-1.66 11 -2.32 11 -3 11 C-2.25 3.375 -2.25 3.375 0 0 Z " fill="#A79687" transform="translate(21,87)"/>
<path d="M0 0 C1.32 0.33 2.64 0.66 4 1 C3.979375 1.78375 3.95875 2.5675 3.9375 3.375 C3.81315937 5.98114961 3.81315937 5.98114961 5 8 C4.01 8 3.02 8 2 8 C2 6.35 2 4.7 2 3 C0.02 3 -1.96 3 -4 3 C-2.68 2.67 -1.36 2.34 0 2 C0 1.34 0 0.68 0 0 Z " fill="#B2A699" transform="translate(58,23)"/>
<path d="M0 0 C0 1.65 0 3.3 0 5 C-1.65 5.33 -3.3 5.66 -5 6 C-5 4.35 -5 2.7 -5 1 C-1.125 0 -1.125 0 0 0 Z " fill="#342A19" transform="translate(5,72)"/>
<path d="M0 0 C0.33 0 0.66 0 1 0 C1.29296875 6.0546875 1.29296875 6.0546875 1 8 C0.01 8.66 -0.98 9.32 -2 10 C-2.1953125 3.9453125 -2.1953125 3.9453125 -2 2 C-1.34 1.34 -0.68 0.68 0 0 Z " fill="#3E3130" transform="translate(69,109)"/>
<path d="M0 0 C1.32 0 2.64 0 4 0 C3.67 1.32 3.34 2.64 3 4 C1.35 4.33 -0.3 4.66 -2 5 C-2 4.01 -2 3.02 -2 2 C-1.34 2 -0.68 2 0 2 C0 1.34 0 0.68 0 0 Z " fill="#968871" transform="translate(43,88)"/>
<path d="M0 0 C0.33 0 0.66 0 1 0 C1 2.97 1 5.94 1 9 C1.66 9.33 2.32 9.66 3 10 C1.71034824 11.37562854 0.37310707 12.70766393 -1 14 C-1.66 14 -2.32 14 -3 14 C-2.5359375 13.0409375 -2.5359375 13.0409375 -2.0625 12.0625 C-0.68064597 8.07950896 -0.3463457 4.18349151 0 0 Z " fill="#A3827A" transform="translate(69,47)"/>
<path d="M0 0 C2.475 0.99 2.475 0.99 5 2 C4.67 2.99 4.34 3.98 4 5 C3.01 4.34 2.02 3.68 1 3 C1.66 4.65 2.32 6.3 3 8 C2.34 8.66 1.68 9.32 1 10 C0.67 6.7 0.34 3.4 0 0 Z " fill="#B49E89" transform="translate(110,23)"/>
<path d="M0 0 C1.32 0 2.64 0 4 0 C4.0825 0.763125 4.165 1.52625 4.25 2.3125 C5.14615794 5.52373261 6.21611025 6.29374499 9 8 C5.41209425 7.70100785 4.21833224 7.23013399 1.6875 4.5625 C0 2 0 2 0 0 Z " fill="#B3A292" transform="translate(63,0)"/>
<path d="M0 0 C1.65 0 3.3 0 5 0 C4.67 0.66 4.34 1.32 4 2 C3.34 2 2.68 2 2 2 C2.33 4.64 2.66 7.28 3 10 C-0.00617269 6.99382731 0.40414684 4.17618402 0 0 Z " fill="#524D4B" transform="translate(1,91)"/>
<path d="M0 0 C1.32 0.33 2.64 0.66 4 1 C3.34 1 2.68 1 2 1 C1.67 2.65 1.34 4.3 1 6 C0.34 6 -0.32 6 -1 6 C-1.33 6.99 -1.66 7.98 -2 9 C-2.25 3.375 -2.25 3.375 0 0 Z " fill="#A4957B" transform="translate(44,45)"/>
<path d="M0 0 C-1.14018002 3.42054006 -1.92458518 4.2426201 -5 6 C-7.13671875 5.578125 -7.13671875 5.578125 -9 5 C-7.87926138 4.16094435 -6.75325453 3.32892169 -5.625 2.5 C-4.99851562 2.0359375 -4.37203125 1.571875 -3.7265625 1.09375 C-2 0 -2 0 0 0 Z " fill="#1A1718" transform="translate(60,137)"/>
<path d="M0 0 C0.99 1.32 1.98 2.64 3 4 C2.34 5.32 1.68 6.64 1 8 C0.01 7.67 -0.98 7.34 -2 7 C-1.34 4.69 -0.68 2.38 0 0 Z " fill="#A3937A" transform="translate(138,96)"/>
<path d="M0 0 C0.66 0 1.32 0 2 0 C2 1.98 2 3.96 2 6 C0.68 6 -0.64 6 -2 6 C-1.125 1.125 -1.125 1.125 0 0 Z " fill="#1D1007" transform="translate(15,67)"/>
<path d="M0 0 C0.66 0 1.32 0 2 0 C2 1.32 2 2.64 2 4 C2.66 4 3.32 4 4 4 C3.34 6.97 2.68 9.94 2 13 C1.67 13 1.34 13 1 13 C0.67 8.71 0.34 4.42 0 0 Z " fill="#7C6F60" transform="translate(18,65)"/>
<path d="M0 0 C1.98 0.495 1.98 0.495 4 1 C3.01 2.485 3.01 2.485 2 4 C1.92094936 6.33199388 1.91201231 8.66832622 2 11 C1.01 10.67 0.02 10.34 -1 10 C-0.67 6.7 -0.34 3.4 0 0 Z " fill="#B2A287" transform="translate(41,44)"/>
<path d="M0 0 C-1.04874998 2.62187494 -1.64931313 3.79371361 -4.125 5.25 C-4.74375 5.4975 -5.3625 5.745 -6 6 C-6 5.34 -6 4.68 -6 4 C-6.66 3.67 -7.32 3.34 -8 3 C-2.25 0 -2.25 0 0 0 Z " fill="#B4A48D" transform="translate(39,77)"/>
<path d="M0 0 C2.31 0 4.62 0 7 0 C7 0.66 7 1.32 7 2 C7.99 1.67 8.98 1.34 10 1 C10 1.66 10 2.32 10 3 C6.7 2.67 3.4 2.34 0 2 C0 1.34 0 0.68 0 0 Z " fill="#825755" transform="translate(59,59)"/>
<path d="M0 0 C2.00720923 0.28674418 4.0085944 0.61866701 6 1 C5.67 1.66 5.34 2.32 5 3 C3.68 3 2.36 3 1 3 C0.67 3.99 0.34 4.98 0 6 C-0.33 6 -0.66 6 -1 6 C-1.042721 4.33388095 -1.04063832 2.66617115 -1 1 C-0.67 0.67 -0.34 0.34 0 0 Z " fill="#553E33" transform="translate(70,57)"/>
<path d="M0 0 C3.3125 -0.25 3.3125 -0.25 7 0 C9 1.75 9 1.75 10 4 C9.6875 6.25 9.6875 6.25 9 8 C8.443125 6.5459375 8.443125 6.5459375 7.875 5.0625 C6.28947638 1.68859031 6.28947638 1.68859031 2.8125 1.125 C1.884375 1.08375 0.95625 1.0425 0 1 C0 0.67 0 0.34 0 0 Z " fill="#64574B" transform="translate(8,57)"/>
<path d="M0 0 C0.66 0.33 1.32 0.66 2 1 C1.67 2.98 1.34 4.96 1 7 C-0.65 5.35 -2.3 3.7 -4 2 C-2.68 2 -1.36 2 0 2 C0 1.34 0 0.68 0 0 Z " fill="#3C3233" transform="translate(67,96)"/>
<path d="M0 0 C0.99 0 1.98 0 3 0 C2.34 3.96 1.68 7.92 1 12 C0.67 12 0.34 12 0 12 C0 8.04 0 4.08 0 0 Z " fill="#62513F" transform="translate(13,75)"/>
<path d="M0 0 C0.33 0 0.66 0 1 0 C1 3.63 1 7.26 1 11 C0.67 10.34 0.34 9.68 0 9 C-0.66 9 -1.32 9 -2 9 C-1.34 6.03 -0.68 3.06 0 0 Z " fill="#908172" transform="translate(22,60)"/>
<path d="M0 0 C1.32 0 2.64 0 4 0 C3.43628586 3.26954202 2.50037734 4.82575883 0 7 C0 4.69 0 2.38 0 0 Z " fill="#312024" transform="translate(0,59)"/>
<path d="M0 0 C0.99 0 1.98 0 3 0 C2.67 1.65 2.34 3.3 2 5 C1.01 5.33 0.02 5.66 -1 6 C-0.67 4.02 -0.34 2.04 0 0 Z " fill="#5A4D3F" transform="translate(74,95)"/>
<path d="M0 0 C1.41750563 0.11509661 2.83401169 0.24253658 4.25 0.375 C5.03890625 0.44460937 5.8278125 0.51421875 6.640625 0.5859375 C9.085877 1.01507113 10.84836903 1.78600638 13 3 C8.02398374 4.71050559 4.57383705 3.00885647 0 1 C0 0.67 0 0.34 0 0 Z " fill="#C0B3A0" transform="translate(65,90)"/>
<path d="M0 0 C0.86625 0.5259375 0.86625 0.5259375 1.75 1.0625 C4.35801776 2.14917407 5.39417629 1.93065133 8 1 C7.34 2.32 6.68 3.64 6 5 C2.83884224 3.63016497 2.0072908 3.0109362 0 0 Z " fill="#26201D" transform="translate(57,43)"/>
<path d="M0 0 C1.65 0 3.3 0 5 0 C5 0.99 5 1.98 5 3 C3.35 3.33 1.7 3.66 0 4 C0 2.68 0 1.36 0 0 Z " fill="#2A2115" transform="translate(54,27)"/>
<path d="M0 0 C0.33 0 0.66 0 1 0 C1 1.65 1 3.3 1 5 C0.34 5 -0.32 5 -1 5 C-1 5.66 -1 6.32 -1 7 C-1.66 7 -2.32 7 -3 7 C-3 5.35 -3 3.7 -3 2 C-2.01 2 -1.02 2 0 2 C0 1.34 0 0.68 0 0 Z " fill="#C6B19D" transform="translate(54,4)"/>
<path d="M0 0 C1.65 0 3.3 0 5 0 C4.34 1.32 3.68 2.64 3 4 C2.01 4 1.02 4 0 4 C0 2.68 0 1.36 0 0 Z " fill="#342211" transform="translate(3,93)"/>
<path d="M0 0 C0.78375 0.04125 1.5675 0.0825 2.375 0.125 C2.375 1.115 2.375 2.105 2.375 3.125 C0.065 2.795 -2.245 2.465 -4.625 2.125 C-2.625 0.125 -2.625 0.125 0 0 Z " fill="#6C563A" transform="translate(8.625,88.875)"/>
<path d="M0 0 C3.375 -0.125 3.375 -0.125 7 0 C7.66 0.66 8.32 1.32 9 2 C6.69 2.33 4.38 2.66 2 3 C1.34 2.01 0.68 1.02 0 0 Z " fill="#433224" transform="translate(64,62)"/>
<path d="M0 0 C2 1 2 1 2 1 Z " fill="#B1AFAE" transform="translate(43,142)"/>
<path d="" fill="#F2DEC5" transform="translate(0,0)"/>
<path d="" fill="#E8D5BC" transform="translate(0,0)"/>
<path d="" fill="#C8B8A6" transform="translate(0,0)"/>
<path d="" fill="#FFFFFF" transform="translate(0,0)"/>
<path d="" fill="#DAC5B1" transform="translate(0,0)"/>
<path d="" fill="#FFFFFF" transform="translate(0,0)"/>
<path d="" fill="#4E4744" transform="translate(0,0)"/>
<path d="" fill="#6D4E2E" transform="translate(0,0)"/>
<path d="" fill="#423D3C" transform="translate(0,0)"/>
<path d="" fill="#3A2816" transform="translate(0,0)"/>
<path d="" fill="#250D00" transform="translate(0,0)"/>
<path d="" fill="#FFFFBD" transform="translate(0,0)"/>
<path d="" fill="#FFFFC6" transform="translate(0,0)"/>
<path d="" fill="#E5D1B6" transform="translate(0,0)"/>
<path d="" fill="#BEAA88" transform="translate(0,0)"/>
<path d="" fill="#FFF6C9" transform="translate(0,0)"/>
<path d="" fill="#FFF2D1" transform="translate(0,0)"/>
<path d="" fill="#A69989" transform="translate(0,0)"/>
<path d="" fill="#93897F" transform="translate(0,0)"/>
<path d="" fill="#DECDB3" transform="translate(0,0)"/>
<path d="" fill="#857C70" transform="translate(0,0)"/>
<path d="" fill="#69605A" transform="translate(0,0)"/>
<path d="" fill="#665F5A" transform="translate(0,0)"/>
<path d="" fill="#7B6E61" transform="translate(0,0)"/>
<path d="" fill="#947E65" transform="translate(0,0)"/>
<path d="" fill="#A48D7B" transform="translate(0,0)"/>
<path d="" fill="#FFF3AE" transform="translate(0,0)"/>
<path d="" fill="#FBDBB4" transform="translate(0,0)"/>
<path d="" fill="#9B8571" transform="translate(0,0)"/>
<path d="" fill="#A08B76" transform="translate(0,0)"/>
<path d="" fill="#928177" transform="translate(0,0)"/>
<path d="" fill="#87786B" transform="translate(0,0)"/>
<path d="" fill="#FFFFBF" transform="translate(0,0)"/>
<path d="" fill="#5E5757" transform="translate(0,0)"/>
<path d="" fill="#96826B" transform="translate(0,0)"/>
<path d="" fill="#AA957F" transform="translate(0,0)"/>
<path d="" fill="#FFFFFF" transform="translate(0,0)"/>
<path d="" fill="#AC9B85" transform="translate(0,0)"/>
</svg>
